<?xml version="1.0" standalone="yes"?>
<svg xmlns="http://www.w3.org/2000/svg" width="2000" height="1000">
<path style="fill:#aec4e1; stroke:none;" d="M513 149L513 157L513 173L513 181L513 186L513 193L513 198L513 203L513 207L513 210L513 215L513 220L513 221L513 229L513 230L513 232L513 236L513 241L513 249L513 259L513 262L513 264L513 269L513 277L513 279L513 283L516.056 283L517 283L519 283L527 283L528 283L531 283L535 283L539 283L544 283L546 283L566 283L570 283L634 283L638 283L639 283L644 283L651 283L664 283L675 283L679 283L686 283L688 283L693 283L701 283L705 283L710 283L711 283L712 283L716 283L719 283L723 283L725 283L733 283L735 283L737 283L740 283L746 283L747 283L751 283L752 283L760 283L764 283L767 283L799 283L846 283L852 283L854 283L862 283L863 283L868 283L869 283L871 283L875 283L876 283L884 283L888 283L890 283L893 283L895 283L899 283L907 283L917 283L922 283L926 283L927 283L929 283L933 283L937 283L938 283L946 283L950 283L952 283L958 283L962 283L966 283L972 283L978 283L979 283L983 283L984 283L986 283L989 283L990 283L995 283L1003 283L1005 283L1007 283L1008 283L1016 283L1024 283L1025 283L1027 283L1029 283L1030 283L1032 283L1033 283L1034 283L1035 283L1037 283L1038 283L1039 283L1040 283L1048 283L1049 283L1050 283L1051 283L1055 283L1063 283L1064 283L1065 283L1066 283L1068 283L1072 283L1080 283L1082 283L1087 283L1095 283L1096 283L1098 283L1100 283L1104 283L1105 283L1106 283L1107 283L1109 283L1111 283L1119 283L1120 283L1124 283L1125 283L1126 283L1134 283L1135 283L1140 283L1142 283L1146 283L1147 283L1151 283L1152 283L1153 283L1154 283L1158 283L1162 283L1163 283L1165 283L1169 283L1170 283L1175 283L1183 283L1185 283L1190 283L1194 283L1199 283L1201 283L1202 283L1203 283L1207 283L1208 283L1210 283L1214 283L1222 283L1230 283L1234 283L1239 283L1241 283L1242 283L1246 283L1262 283L1264 283L1265 283L1273 283L1274 283L1278 283L1294 283L1298 283L1299 283L1303 283L1304 283L1305 283L1306 283L1314 283L1318 283L1319 283L1320 283L1321 283L1323 283L1325 283L1327 283L1328 283L1329 283L1333 283L1335 283L1337 283L1339 283L1340 283L1341 283L1345 283L1361 283L1365 283L1366 283L1367 283L1371 283L1372 283L1373 283L1374 283L1378 283L1394 283L1395 283L1399 283L1403 283L1404 283L1405 283L1407 283L1408 283L1410 283L1418 283L1419 283L1420 283L1422 283L1423 283L1427 283L1428 283L1432 283L1434 283L1435 283L1439 283L1441 283L1449 283L1465 283L1473 283L1477 283L1479 283L1480 283L1482 283L1483 283L1487 283L1488 283L1492 283L1493 283L1497 283L1497 278L1497 270L1497 266L1497 263L1497 258L1497 257L1497 253L1497 249L1497 248L1497 246L1497 243L1497 227L1497 213L1497 209L1497 208L1497 206L1497 205L1497 203L1497 199L1497 192L1497 191L1497 189L1497 188L1497 185L1497 181L1497 180L1497 176L1497 171L1497 170L1497 165L1497 161L1497 159L1497 158L1497 156L1497 154L1497 153L1497 149L1493 149L1492 149L1488 149L1486 149L1485 149L1483 149L1479 149L1478 149L1474 149L1472 149L1468 149L1467 149L1459 149L1458 149L1450 149L1446 149L1444 149L1442 149L1441 149L1440 149L1436 149L1434 149L1432 149L1431 149L1415 149L1412 149L1408 149L1406 149L1404 149L1403 149L1399 149L1391 149L1387 149L1379 149L1377 149L1369 149L1365 149L1357 149L1353 149L1349 149L1348 149L1347 149L1331 149L1330 149L1328 149L1325 149L1324 149L1323 149L1322 149L1318 149L1314 149L1313 149L1312 149L1308 149L1307 149L1306 149L1302 149L1298 149L1295 149L1293 149L1292 149L1289 149L1286 149L1282 149L1281 149L1279 149L1278 149L1272 149L1270 149L1266 149L1265 149L1261 149L1257 149L1256 149L1252 149L1220 149L1215 149L1199 149L1197 149L1189 149L1188 149L1184 149L1181 149L1179 149L1175 149L1172 149L1170 149L1166 149L1164 149L1162 149L1158 149L1156 149L1155 149L1149 149L1148 149L1144 149L1112 149L1111 149L1109 149L1106 149L1104 149L1096 149L1088 149L1087 149L1086 149L1085 149L1084 149L1081 149L1079 149L1077 149L1075 149L1074 149L1072 149L1069 149L1061 149L1057 149L1056 149L1052 149L1051 149L1047 149L1045 149L1043 149L1040 149L1032 149L1030 149L1029 149L1027 149L1026 149L1025 149L1021 149L1020 149L1019 149L1017 149L1015 149L1011 149L1009 149L1008 149L1007 149L1006 149L1002 149L1001 149L997 149L992 149L991 149L980 149L976 149L968 149L967 149L959 149L958 149L955 149L949 149L947 149L943 149L942 149L934 149L930 149L928 149L927 149L926 149L894 149L893 149L891 149L887 149L886 149L883 149L879 149L877 149L876 149L875 149L867 149L863 149L862 149L859 149L853 149L852 149L850 149L849 149L845 149L840 149L834 149L833 149L832 149L829 149L823 149L821 149L817 149L816 149L814 149L809 149L801 149L796 149L780 149L764 149L756 149L752 149L743 149L742 149L739 149L733 149L728 149L720 149L719 149L710 149L709 149L704 149L699 149L698 149L697 149L696 149L685 149L684 149L675 149L673 149L659 149L656 149L648 149L647 149L646 149L643 149L637 149L635 149L629 149L628 149L620 149L513 149M1198 204L1198 206L1198 209L1197 210L1193.94 210L1191 210L1189 210L1185 210L1183 210L1182 210L1180 210L1179 210L1147 210L1143 210L1139 210L1138 210L1134 210L1130 210L1128 210L1126 210L1125 210L1124 210L1121 210L1119 210L1111 210L1110 210L1109 210L1101 210L1100 210L1099 210L1098 210L1090 210L1088 210L1087 210L1086 210L1078 210L1075 210L1067 210L1066 210L1062 210L1061 210L1053 210L1052 210L1051 210L1049 210L1033 210L1025 210L1009 210L1007 210L1006 210L1002 210L1001 210L997 210L991 210L990 210L958 210L950 210L942 210L940 210L932 210L928 210L926 210L923 210L919 210L915 210L910 210L909 210L908 210L892 210L884 210L883 210L880 210L874 210L873 210L871 210L866 210L864 210L832 210L825 210L820 210L813 210L813 204L815.056 204L817 204L822 204L823 204L824 204L826 204L831 204L839 204L841 204L849 204L856 204L857 204L859 204L863 204L864 204L868 204L872 204L873 204L879 204L883 204L884 204L887 204L889 204L897 204L899 204L900 204L904 204L905 204L909 204L914 204L919 204L920 204L925 204L933 204L937 204L938 204L940 204L945 204L946 204L950 204L955 204L963 204L967 204L972 204L980 204L983 204L985 204L991 204L993 204L995 204L1000 204L1002 204L1005 204L1010 204L1011 204L1015 204L1017 204L1018 204L1019 204L1027 204L1028 204L1029 204L1030 204L1032 204L1033 204L1035 204L1036 204L1037 204L1045 204L1047 204L1048 204L1056 204L1058 204L1060 204L1061 204L1063 204L1065 204L1070 204L1071 204L1075 204L1076 204L1080 204L1081 204L1089 204L1091 204L1095 204L1096 204L1100 204L1101 204L1109 204L1110 204L1111 204L1115 204L1116 204L1117 204L1125 204L1126 204L1130 204L1134 204L1135 204L1137 204L1153 204L1155 204L1156 204L1160 204L1161 204L1163 204L1168 204L1169 204L1173 204L1174 204L1178 204L1180 204L1188 204L1189 204L1193 204L1194.94 204L1198 204z"/>
<path style="fill:#284c75; stroke:none;" d="M513 286L513 289.056L513 293L513 297L513 305L513 306L513 315L513 347L513 351L513 357L513 382L513 383L513 387L513 399L513 401L513 406L513 408L513 416L513 420L517 420L525 420L527 420L565 420L567 420L590 420L591 420L592 420L618 420L619 420L637 420L641 420L669 420L670 420L671 420L673 420L674 420L676 420L679 420L686 420L694 420L726 420L731 420L733 420L756.5 420L758 420L757.222 419.278L756.694 419.25L755.889 419.056L754.972 419.028L754 419L753 419L751 419L747 419L746 419L744 419L743 419L739 419L731 419L729 419L727 419L726 419L724 419L722 419L714 419L709 419L702 419L697 419L691 419L690 419L687 419L683 419L678 419L672 419L667 419L665 419L660 419L649 419L645 419L637 419L629 419L628 419L619 419L617 419L609 419L608 419L599 419L561 419L548 419L547 419L518 419L514 419L514 379L514 333L514 317L514 315L514 311L514 306L514 302L514 297L514 295L514 287L530 287L531 287L541 287L546 287L556 287L558 287L570 287L575 287L580 287L583 287L585 287L599 287L663 287L667 287L678 287L686 287L691 287L692 287L703 287L711 287L715 287L720 287L726 287L742 287L746 287L747 287L757 287L756.222 286.278L755.694 286.25L754.889 286.056L753.972 286.028L753 286L752 286L750 286L745 286L739 286L738 286L715 286L709 286L706 286L700 286L696 286L690 286L689 286L684 286L679 286L677 286L672 286L666 286L663 286L657 286L649 286L641 286L636 286L633 286L629 286L628 286L627 286L619 286L615 286L614 286L606 286L602 286L594 286L589 286L587 286L574 286L572 286L571 286L569 286L513 286z"/>
<path style="fill:#375f91; stroke:none;" d="M757 286L755.5 286.722L754.944 286.75L753.944 286.944L753 286.972L752 287L750 287L747 287L745 287L742 287L740 287L737 287L733 287L728 287L722 287L720 287L719 287L717 287L714 287L709 287L701 287L700 287L695 287L687 287L683 287L675 287L672 287L670 287L663 287L657 287L649 287L642 287L637 287L629 287L627 287L622 287L614 287L610 287L608 287L589 287L585 287L577 287L555 287L554 287L544 287L536 287L514 287L514 415L514 419L519 419L524 419L533 419L536 419L538 419L542 419L543 419L552 419L553 419L556 419L557 419L563 419L566 419L571 419L580 419L585 419L607 419L610 419L612 419L620 419L621 419L625 419L630 419L632 419L696 419L701 419L702 419L711 419L715 419L747 419L751 419L752 419L758 419L758 415.944L758 412L758 400L758 399L758 397L758 393L758 382L758 380L758 379L758 360L758 352L758 351L758 350L758 343L758 335L758 333L758 332L758 324L758 323L758 320L758 316L758 308L758 306L758 304L758 301L758 297L758 293L758 291L757.972 289.028L757.944 288.111L757.75 287.306L757.722 286.778L757 286z"/>
<path style="fill:#aec4e1; stroke:none;" d="M758 286L758 289.056L758 290L758 291L758 296L758 298L758 307L758 315L758 320L758 328L758 329L758 337L758 346L758 351L758 359L758 360L758 368L758 369L758 377L758 381L758 386L758 420L759.5 419.75L761.056 419.389L763 419.083L764 419.028L765 419L767 419L770 419L774 419L783 419L788 419L793 419L794 419L801 419L809 419L811 419L813 419L817 419L818 419L826 419L831 419L833 419L838 419L839 419L840 419L845 419L851 419L852 419L854 419L857 419L864 419L869 419L873 419L878 419L880 419L881 419L885 419L890 419L892 419L894 419L900 419L901 419L906 419L911 419L912 419L920 419L922 419L923 419L926 419L927 419L931 419L936 419L937 419L943 419L944 419L948 419L953 419L955 419L959 419L964 419L972 419L973 419L974 419L976 419L982 419L983 419L986 419L994 419L998 419L1003 419L1009 419L1011 419L1012 419L1014 419L1022 419L1023 419L1025 419L1026 419L1034 419L1035 419L1036 419L1037 419L1045 419L1046 419L1047 419L1048 419L1052 419L1054 419L1055 419L1056 419L1060 419L1061 419L1062 419L1063 419L1065 419L1067 419L1075 419L1080 419L1082 419L1087 419L1091 419L1093 419L1094 419L1102 419L1103 419L1105 419L1113 419L1114 419L1122 419L1123 419L1127 419L1128 419L1129 419L1131 419L1135 419L1136 419L1137 419L1138 419L1139 419L1143 419L1151 419L1152 419L1168 419L1173 419L1177 419L1179 419L1180 419L1182 419L1183 419L1184 419L1192 419L1197 419L1200 419L1204 419L1205 419L1207 419L1209 419L1211 419L1213 419L1214 419L1216 419L1219 419L1221 419L1222 419L1224 419L1227 419L1231 419L1232 419L1236 419L1237 419L1238 419L1240 419L1242 419L1243 419L1244 419L1245 419L1249 419L1265 419L1269 419L1270 419L1271 419L1275 419L1276 419L1277 419L1281 419L1282 419L1283 419L1287 419L1288 419L1292 419L1293 419L1295 419L1296 419L1300 419L1301 419L1305 419L1307 419L1308 419L1310 419L1312 419L1314 419L1315 419L1316 419L1317 419L1325 419L1327 419L1329 419L1330 419L1334 419L1335 419L1337 419L1339 419L1340 419L1341 419L1342 419L1343 419L1347 419L1350 419L1352 419L1355 419L1360 419L1361 419L1365 419L1366 419L1367 419L1368 419L1372 419L1404 419L1405 419L1407 419L1408 419L1409 419L1413 419L1414 419L1415 419L1420 419L1424 419L1428 419L1429 419L1431 419L1435 419L1436 419L1440 419L1441 419L1442 419L1443 419L1444 419L1448 419L1449 419L1450 419L1452 419L1456 419L1458 419L1474 419L1478 419L1486 419L1487 419L1490 419L1492 419L1492.94 419L1493.94 419L1496 419L1496 407L1496 401L1496 400L1496 393L1496 392L1496 390L1496 385L1496 380L1496 376L1496 373L1496 372L1496 368L1496 363L1496 355L1496 353L1496 347L1496 331L1496 315L1496 311L1496 307L1496 301L1496 296L1496.72 297.5L1496.75 298.056L1496.94 299.056L1496.97 300L1497 301L1497 303L1497 305L1497 310L1497 313L1497 317L1497 318L1497 326L1497 334L1497 335L1497 336L1497 357L1497 361L1497 365L1497 373L1497 377L1497 381L1497 386L1497 387L1497 396L1497 398L1497 399L1497 401L1497 406L1497 408L1497 416L1497 420L1497.72 419.222L1497.75 418.694L1497.94 417.889L1497.97 416.972L1498 415L1498 413L1498 408L1498 407L1498 382L1498 380L1498 379L1498 354L1498 349L1498 348L1498 344L1498 343L1498 342L1498 341L1498 339L1498 335L1498 334L1498 329L1498 324L1498 316L1498 312L1498 307L1498 302L1498 286L1482 286L1478 286L1474 286L1473 286L1472 286L1464 286L1463 286L1459 286L1451 286L1450 286L1446 286L1445 286L1443 286L1441 286L1440 286L1438 286L1436 286L1435 286L1427 286L1423 286L1419 286L1418 286L1414 286L1413 286L1407 286L1403 286L1402 286L1398 286L1397 286L1396 286L1395 286L1390 286L1386 286L1385 286L1384 286L1383 286L1381 286L1379 286L1378 286L1376 286L1375 286L1371 286L1370 286L1369 286L1353 286L1345 286L1341 286L1339 286L1338 286L1336 286L1335 286L1333 286L1301 286L1293 286L1291 286L1290 286L1286 286L1284 286L1282 286L1281 286L1280 286L1272 286L1270 286L1262 286L1258 286L1254 286L1253 286L1252 286L1251 286L1247 286L1243 286L1241 286L1237 286L1233 286L1229 286L1228 286L1224 286L1220 286L1215 286L1214 286L1213 286L1209 286L1207 286L1206 286L1204 286L1203 286L1195 286L1191 286L1187 286L1186 286L1184 286L1183 286L1182 286L1180 286L1179 286L1177 286L1161 286L1159 286L1156 286L1154 286L1146 286L1138 286L1130 286L1128 286L1126 286L1122 286L1118 286L1117 286L1109 286L1108 286L1106 286L1102 286L1101 286L1097 286L1096 286L1090 286L1089 286L1088 286L1084 286L1081 286L1079 286L1077 286L1075 286L1074 286L1068 286L1067 286L1051 286L1047 286L1043 286L1042 286L1038 286L1036 286L1032 286L1031 286L1029 286L1027 286L1026 286L1024 286L1008 286L1000 286L984 286L980 286L977 286L975 286L974 286L966 286L965 286L963 286L961 286L957 286L956 286L952 286L946 286L938 286L934 286L932 286L931 286L929 286L928 286L926 286L923 286L915 286L911 286L907 286L901 286L898 286L896 286L893 286L892 286L890 286L887 286L885 286L877 286L873 286L872 286L870 286L866 286L864 286L862 286L854 286L851 286L847 286L845 286L844 286L840 286L834 286L833 286L824 286L819 286L803 286L801 286L800 286L799 286L794 286L786 286L781 286L771 286L766 286L758 286z"/>
<path style="fill:#9aa6b3; stroke:none;" d="M1496 296L1496 308L1496 310L1496 315L1496 321L1496 325L1496 333L1496 342L1496 343L1496 352L1496 353L1496 355L1496 419L1492 419L1476 419L1468 419L1467 419L1465 419L1461 419L1459 419L1458 419L1456 419L1424 419L1422 419L1420 419L1419 419L1418 419L1414 419L1413 419L1409 419L1393 419L1392 419L1388 419L1387 419L1383 419L1375 419L1374 419L1373 419L1369 419L1368 419L1367 419L1363 419L1361 419L1358 419L1357 419L1353 419L1349 419L1348 419L1340 419L1332 419L1328 419L1320 419L1318 419L1317 419L1315 419L1311 419L1309 419L1308 419L1307 419L1299 419L1298 419L1294 419L1293 419L1289 419L1285 419L1284 419L1283 419L1279 419L1275 419L1274 419L1270 419L1266 419L1265 419L1264 419L1263 419L1260 419L1258 419L1257 419L1255 419L1254 419L1252 419L1251 419L1249 419L1248 419L1244 419L1243 419L1239 419L1238 419L1237 419L1236 419L1232 419L1231 419L1228 419L1224 419L1222 419L1221 419L1219 419L1218 419L1214 419L1213 419L1207 419L1206 419L1205 419L1204 419L1201 419L1200 419L1198 419L1197 419L1195 419L1194 419L1192 419L1191 419L1189 419L1188 419L1184 419L1180 419L1172 419L1168 419L1164 419L1163 419L1162 419L1160 419L1159 419L1156 419L1154 419L1151 419L1149 419L1148 419L1147 419L1143 419L1137 419L1136 419L1135 419L1134 419L1118 419L1086 419L1085 419L1077 419L1076 419L1075 419L1073 419L1071 419L1067 419L1063 419L1060 419L1059 419L1057 419L1056 419L1054 419L1053 419L1052 419L1048 419L1045 419L1043 419L1040 419L1038 419L1034 419L1032 419L1031 419L1023 419L1019 419L1015 419L1013 419L1011 419L1009 419L1008 419L1000 419L999 419L998 419L966 419L965 419L960 419L959 419L955 419L950 419L945 419L944 419L942 419L940 419L932 419L931 419L927 419L926 419L922 419L920 419L918 419L915 419L909 419L904 419L898 419L896 419L895 419L894 419L862 419L858 419L857 419L853 419L848 419L832 419L824 419L823 419L820 419L814 419L810 419L804 419L803 419L799 419L798 419L794 419L789 419L788 419L783 419L782 419L781 419L777 419L772 419L767 419L764 419L760 419L760.778 419.722L761.306 419.75L762.111 419.944L763.028 419.972L764 420L765 420L767 420L771 420L776 420L777 420L781 420L782 420L790 420L792 420L794 420L795 420L798 420L802 420L807 420L815 420L816 420L820 420L821 420L823 420L842 420L843 420L847 420L851 420L861 420L862 420L870 420L878 420L882 420L886 420L890 420L895 420L903 420L905 420L921 420L931 420L939 420L943 420L945 420L953 420L956 420L957 420L962 420L963 420L967 420L968 420L970 420L975 420L978 420L982 420L989 420L992 420L995 420L1003 420L1011 420L1015 420L1017 420L1019 420L1020 420L1025 420L1026 420L1027 420L1030 420L1031 420L1033 420L1034 420L1036 420L1038 420L1046 420L1059 420L1061 420L1064 420L1072 420L1073 420L1074 420L1082 420L1083 420L1084 420L1088 420L1089 420L1093 420L1095 420L1099 420L1100 420L1108 420L1112 420L1114 420L1115 420L1117 420L1119 420L1120 420L1122 420L1123 420L1125 420L1127 420L1131 420L1139 420L1144 420L1146 420L1147 420L1148 420L1150 420L1152 420L1157 420L1158 420L1162 420L1163 420L1167 420L1169 420L1172 420L1173 420L1174 420L1176 420L1184 420L1192 420L1197 420L1200 420L1204 420L1205 420L1207 420L1209 420L1213 420L1217 420L1218 420L1219 420L1223 420L1225 420L1233 420L1235 420L1237 420L1239 420L1241 420L1242 420L1250 420L1252 420L1255 420L1263 420L1271 420L1272 420L1273 420L1274 420L1278 420L1282 420L1285 420L1293 420L1299 420L1302 420L1310 420L1312 420L1314 420L1315 420L1316 420L1320 420L1321 420L1322 420L1323 420L1325 420L1327 420L1328 420L1332 420L1333 420L1334 420L1335 420L1337 420L1339 420L1340 420L1341 420L1342 420L1343 420L1347 420L1350 420L1352 420L1356 420L1357 420L1358 420L1362 420L1363 420L1364 420L1366 420L1370 420L1378 420L1382 420L1386 420L1387 420L1388 420L1392 420L1393 420L1394 420L1398 420L1399 420L1400 420L1401 420L1403 420L1404 420L1408 420L1409 420L1413 420L1414 420L1415 420L1416 420L1420 420L1421 420L1425 420L1428 420L1436 420L1444 420L1448 420L1449 420L1450 420L1455 420L1460 420L1461 420L1462 420L1464 420L1465 420L1467 420L1469 420L1473 420L1474 420L1478 420L1479 420L1483 420L1485 420L1486 420L1490 420L1492 420L1493 420L1497 420L1497 415L1497 407L1497 403L1497 398L1497 397L1497 393L1497 388L1497 386L1497 385L1497 368L1497 342L1497 331L1497 326L1497 320L1497 315L1497 307L1497 303L1497 301L1496.97 299.028L1496.94 298.111L1496.75 297.306L1496.72 296.778L1496 296z"/>
<path style="fill:#aec4e1; stroke:none;" d="M571 339L571.778 339.722L572.306 339.75L573.111 339.944L574.028 339.972L576 340L578 340L582 340L607 340L608 340L619 340L626 340L635 340L638 340L657 340L658 340L659 340L670 340L675 340L683 340L685 340L686 340L691 340L699 340L698.222 339.278L697.694 339.25L696.889 339.056L695.972 339.028L694 339L692 339L688 339L687 339L686 339L677 339L676 339L663 339L658 339L652 339L651 339L649 339L648 339L645 339L641 339L637 339L629 339L628 339L619 339L615 339L610 339L591 339L589 339L581 339L580 339L571 339z"/>
<path style="fill:#798ba5; stroke:none;" d="M699 339L699 343L680 343L671 343L667 343L662 343L661 343L659 343L653 343L652 343L602 343L580 343L577 343L576 343L574.028 342.889L572.333 342.333L571.361 341.389L571 340L570.306 340.778L570.306 341.25L570.306 342.528L571 344L574.056 344L576 344L584 344L587 344L604 344L606 344L608 344L616 344L617 344L622 344L626 344L627 344L630 344L633 344L636 344L641 344L642 344L643 344L651 344L655 344L656 344L669 344L672 344L676 344L679 344L680 344L684 344L689 344L690 344L694 344L699 344L700 343L699.944 341.056L699.75 340.25L699.722 339.778L699 339M828 339L828.778 339.722L829.306 339.75L830.111 339.944L831.028 339.972L833 340L835 340L836 340L838 340L840 340L845 340L850 340L857 340L858 340L863 340L868 340L869 340L871 340L875 340L891 340L901 340L902 340L903 340L907 340L908 340L913 340L915 340L923 340L927 340L928 340L932.944 340L935 340L935 343L931 343L927 343L926 343L922 343L916 343L912 343L911 343L903 343L902 343L901 343L897 343L896 343L891 343L887 343L883 343L879 343L877 343L876 343L872 343L872.778 343.722L873.306 343.75L874.111 343.944L875.028 343.972L876 344L877 344L879 344L880 344L884 344L887 344L889 344L890 344L895 344L896 344L897 344L898 344L902 344L906 344L907 344L911 344L912 344L920 344L921 344L922 344L926 344L928 344L929 344L931 344L932 343.972L932.944 343.944L933.944 343.75L934.5 343.722L936 343L936 340L935 339L930 339L929 339L925 339L922 339L920 339L918 339L915 339L911 339L909 339L904 339L902 339L901 339L897 339L896 339L891 339L890 339L858 339L854 339L849 339L848 339L844 339L839 339L836 339L832 339L828 339M1021 339L1021.78 339.722L1022.31 339.75L1023.11 339.944L1024.03 339.972L1025 340L1026 340L1028 340L1029 340L1031 340L1033 340L1034 340L1038 340L1046 340L1047 340L1049 340L1051 340L1052 340L1054 340L1055 340L1063 340L1064 340L1072 340L1073 340L1074 340L1075 340L1076 340L1077 340L1078 340L1080 340L1082 340L1087 340L1091 340L1094 340L1096 340L1097 340L1099 340L1100 340L1103 340L1119 340L1121 340L1123 340L1124 340L1125 340L1126 340L1130 340L1131 340L1133 340L1138 340L1139 340L1141 340L1142 340L1145 340L1146 340L1150 340L1151 340L1153 340L1155 340L1157 340L1158 340L1159 340L1160 340L1161 340L1162 340L1170 340L1174 340L1179 340L1180 340L1188 340L1190 340L1194 340L1195 340L1197 340L1201 340L1209 340L1210 340L1226 340L1230.94 340L1231.5 340L1233 340L1232.22 339.278L1231.69 339.25L1230.89 339.056L1229.97 339.028L1229 339L1228 339L1226 339L1222 339L1220 339L1219 339L1217 339L1216 339L1200 339L1196 339L1193 339L1189 339L1187 339L1186 339L1182 339L1180 339L1179 339L1177 339L1175 339L1174 339L1170 339L1168 339L1167 339L1163 339L1159 339L1158 339L1156 339L1155 339L1151 339L1147 339L1146 339L1141 339L1140 339L1139 339L1123 339L1122 339L1114 339L1113 339L1112 339L1111 339L1107 339L1105 339L1104 339L1100 339L1099 339L1098 339L1097 339L1089 339L1088 339L1084 339L1081 339L1079 339L1078 339L1072 339L1070 339L1068 339L1052 339L1050 339L1049 339L1047 339L1043 339L1042 339L1026 339L1025 339L1021 339M1353 339L1353.78 339.722L1354.31 339.75L1355.11 339.944L1356.03 339.972L1357 340L1359 340L1360 340L1362 340L1366 340L1367 340L1371 340L1372 340L1373 340L1377 340L1381 340L1382 340L1386 340L1387 340L1389 340L1391 340L1391.94 340L1392.94 340L1395 340L1394.22 339.278L1393.69 339.25L1392.89 339.056L1391.97 339.028L1391 339L1389 339L1387 339L1383 339L1382 339L1374 339L1370 339L1362 339L1358 339L1356.06 339L1355.06 339L1353 339z"/>
<path style="fill:#807048; stroke:none;" d="M828 340L828 343L828.694 342.25L828.694 341.806L828.694 340.75L828 340z"/>
<path style="fill:#030304; stroke:none;" d="M829 340L829 343L834 343L835 343L841 343L857 343L864 343L871 343L871 340L868.944 340L867.944 340L865 340L864 340L861 340L857 340L849 340L845 340L841 340L839 340L835 340L829 340z"/>
<path style="fill:#284c75; stroke:none;" d="M871 340L871 343L871.694 342.25L871.694 341.806L871.694 340.75L871 340z"/>
<path style="fill:#030304; stroke:none;" d="M872 340L872 343L873.5 343L876 343L880 343L884 343L885 343L890 343L898 343L902 343L906 343L907 343L915 343L919 343L935 343L935 340L931 340L927 340L926 340L922 340L916 340L912 340L911 340L903 340L902 340L901 340L897 340L896 340L891 340L887 340L883 340L879 340L877 340L876 340L872 340z"/>
<path style="fill:#807048; stroke:none;" d="M1020 340L1020 343L1020.69 342.25L1020.69 341.806L1020.69 340.75L1020 340z"/>
<path style="fill:#030304; stroke:none;" d="M1021 340L1021 343L1023.06 343L1024.06 343L1025 343L1027 343L1029 343L1037 343L1039 343L1041 343L1045 343L1046 343L1048 343L1056 343L1058 343L1059.94 343L1060.94 343L1063 343L1063 340L1060.94 340L1059 340L1058 340L1054 340L1053 340L1052 340L1051 340L1035 340L1031 340L1030 340L1026 340L1024.06 340L1021 340z"/>
<path style="fill:#284c75; stroke:none;" d="M1063 340L1063 343L1063.69 342.25L1063.69 341.806L1063.69 340.75L1063 340z"/>
<path style="fill:#030304; stroke:none;" d="M1064 340L1064 343L1067.06 343L1071 343L1075 343L1083 343L1084 343L1092 343L1096 343L1112 343L1114 343L1115 343L1118 343L1120 343L1128 343L1132 343L1140 343L1141 343L1143 343L1144.94 343L1146.5 343L1148 343L1148 340L1140 340L1136 340L1135 340L1134 340L1132 340L1129 340L1128 340L1126 340L1125 340L1123 340L1119 340L1111 340L1110 340L1109 340L1108 340L1106 340L1102 340L1101 340L1099 340L1098 340L1096 340L1092 340L1091 340L1090 340L1088 340L1085 340L1080 340L1079 340L1078 340L1070 340L1067.06 340L1064 340z"/>
<path style="fill:#284c75; stroke:none;" d="M1148 340L1148 343L1148.69 342.25L1148.69 341.806L1148.69 340.75L1148 340z"/>
<path style="fill:#030304; stroke:none;" d="M1149 340L1149 343L1150.5 343L1152.06 343L1154 343L1156 343L1157 343L1161 343L1162 343L1163 343L1167 343L1168 343L1172 343L1173 343L1177 343L1179 343L1180 343L1182 343L1183 343L1184 343L1186 343L1188 343L1189 343L1193 343L1197 343L1205 343L1213 343L1214 343L1215 343L1220 343L1222 343L1223 343L1226 343L1227 343L1228 343L1229.94 343L1230.94 343L1233 343L1233 340L1229 340L1228 340L1224 340L1222 340L1221 340L1219 340L1218 340L1216 340L1215 340L1213 340L1212 340L1204 340L1200 340L1196 340L1195 340L1194 340L1193 340L1189 340L1188 340L1187 340L1179 340L1177 340L1176 340L1160 340L1156 340L1154 340L1153 340L1151.06 340L1149 340z"/>
<path style="fill:#375f91; stroke:none;" d="M1233 340L1233 343L1233.69 342.25L1233.69 341.806L1233.69 340.75L1233 340z"/>
<path style="fill:#9aa6b3; stroke:none;" d="M1352 340L1352 343L1352.69 342.25L1352.69 341.806L1352.69 340.75L1352 340z"/>
<path style="fill:#030304; stroke:none;" d="M1353 340L1353 343L1357 343L1373 343L1377 343L1378 343L1379 343L1383 343L1385 343L1389 343L1391 343L1391.94 343L1392.94 343L1395 343L1395 340L1392.94 340L1391.94 340L1391 340L1388 340L1386 340L1380 340L1379 340L1376 340L1375 340L1373 340L1372 340L1370 340L1369 340L1365 340L1357 340L1356.06 340L1353 340z"/>
<path style="fill:#375f91; stroke:none;" d="M1395 340L1395 343L1395.69 342.25L1395.69 341.806L1395.69 340.75L1395 340z"/>
<path style="fill:#798ba5; stroke:none;" d="M828 343L828.778 343.722L829.306 343.75L830.111 343.944L831.028 343.972L832 344L834 344L835 344L837 344L841 344L842 344L844 344L845 344L846 344L854 344L870 344L869.222 343.278L868.694 343.25L867.889 343.056L866.972 343.028L866 343L864 343L862 343L857 343L853 343L850 343L846 343L838 343L828 343z"/>
<path style="fill:#9aa6b3; stroke:none;" d="M870.667 343.333L871 343.667L871.333 343.667L871 343.333L870.667 343.333z"/>
<path style="fill:#798ba5; stroke:none;" d="M1021 343L1021.78 343.722L1022.31 343.75L1023.11 343.944L1024.03 343.972L1025 344L1026 344L1028 344L1029 344L1030 344L1038 344L1039 344L1040 344L1041 344L1049 344L1050 344L1052 344L1057 344L1059 344L1060 344L1064 344L1066 344L1069 344L1077 344L1078 344L1080 344L1082 344L1087 344L1089 344L1091 344L1094 344L1095 344L1096 344L1100 344L1101 344L1109 344L1110 344L1111 344L1115 344L1117 344L1125 344L1126 344L1127 344L1135 344L1136 344L1138 344L1139 344L1140 344L1145 344L1147 344L1151 344L1153 344L1154 344L1158 344L1159 344L1163 344L1164 344L1166 344L1174 344L1182 344L1183 344L1185 344L1187 344L1189 344L1192 344L1197 344L1198 344L1199 344L1201 344L1203 344L1204 344L1206 344L1207 344L1209 344L1213 344L1215 344L1223 344L1224 344L1228 344L1229.94 344L1230.94 344L1233 344L1232.22 343.278L1231.69 343.25L1230.89 343.056L1229.97 343.028L1229 343L1228 343L1226 343L1222 343L1220 343L1219 343L1217 343L1216 343L1200 343L1198 343L1190 343L1188 343L1184 343L1183 343L1182 343L1180 343L1176 343L1175 343L1174 343L1172 343L1171 343L1165 343L1164 343L1160 343L1159 343L1155 343L1154 343L1153 343L1149 343L1147 343L1139 343L1138 343L1136 343L1128 343L1126 343L1118 343L1117 343L1116 343L1112 343L1111 343L1107 343L1106 343L1102 343L1101 343L1100 343L1098 343L1082 343L1081 343L1080 343L1079 343L1071 343L1070 343L1068 343L1064 343L1063 343L1055 343L1054 343L1046 343L1045 343L1043 343L1039 343L1038 343L1034 343L1030 343L1028 343L1026 343L1025 343L1024.06 343L1022.5 343L1021 343M1353 343L1353.78 343.722L1354.31 343.75L1355.11 343.944L1356.03 343.972L1357 344L1359 344L1360 344L1362 344L1366 344L1367 344L1368 344L1369 344L1373 344L1374 344L1376 344L1384 344L1385 344L1389 344L1391 344L1391.94 344L1392.94 344L1395 344L1394.22 343.278L1393.69 343.25L1392.89 343.056L1391.97 343.028L1391 343L1389 343L1387 343L1383 343L1382 343L1374 343L1370 343L1362 343L1358 343L1357 343L1355.06 343L1353 343z"/>
<path style="fill:#9aa6b3; stroke:none;" d="M513 420L513.778 420.722L514.306 420.75L515.111 420.944L516.028 420.972L517 421L518 421L520 421L533 421L538 421L539 421L542 421L561 421L581 421L584 421L587 421L588 421L607 421L608 421L620 421L624 421L635 421L637 421L645 421L657 421L665 421L668 421L671 421L674 421L676 421L679 421L743 421L744 421L746 421L749 421L754.944 421L758 421L757.222 420.278L756.694 420.25L755.889 420.056L754.972 420.028L754 420L753 420L751 420L747 420L746 420L744 420L743 420L739 420L738 420L715 420L709 420L706 420L700 420L696 420L690 420L686 420L676 420L672 420L671 420L669 420L668 420L666 420L665 420L660 420L656 420L652 420L646 420L644 420L639 420L636 420L633 420L629 420L625 420L624 420L618 420L617 420L582 420L577 420L566 420L561 420L553 420L521 420L513 420z"/>
<path style="fill:#284c75; stroke:none;" d="M513 423L513 473L513 546L532 546L543 546L552 546L556 546L561 546L577 546L580 546L620 546L666 546L672 546L675 546L679 546L689 546L697 546L701 546L706 546L712 546L728 546L732 546L737 546L740 546L744 546L748 546L753 546L754.944 546L758 546L757.417 543.944L757.222 542.944L757.083 542L757 540L757 538L757 533L757 518L757 516L757 466L757 465L757 440L757 432L757 430L757 429L757.083 427L757.222 426.056L757.417 425.056L758 423L742 423L734 423L729 423L723 423L722 423L721 423L719 423L713 423L712 423L704 423L703 423L702 423L697 423L693 423L692 423L684 423L679 423L677 423L672 423L668 423L666 423L647 423L642 423L634 423L629 423L624 423L622 423L593 423L592 423L591 423L557 423L553 423L513 423z"/>
<path style="fill:#375f91; stroke:none;" d="M514 424L514 545L531 545L541 545L546 545L551 545L559 545L570 545L575 545L583 545L584 545L590 545L593 545L597 545L605 545L607 545L611 545L622 545L627 545L649 545L651 545L654 545L662 545L670 545L671 545L676 545L680 545L682 545L693 545L697 545L701 545L702 545L704 545L708 545L712 545L717 545L722 545L726 545L734 545L740 545L756 545L756 522L756 519L756 517L756 490L756 488L756 424L740 424L739 424L707 424L703 424L695 424L690 424L687 424L683 424L678 424L646 424L645 424L644 424L639 424L638 424L630 424L629 424L628 424L617 424L612 424L605 424L600 424L593 424L592 424L590 424L589 424L570 424L536 424L532 424L531 424L514 424M757 424L757 441L757 450L757 452L757 455L757 460L757 462L757 463L757 480L757 499L757 503L757 506L757 545L757.722 544.222L757.75 543.694L757.944 542.889L757.972 541.972L758 540L758 539L758 536L758 519L758 517L758 453L758 452L758 433L758 430L758 429L757.972 427.028L757.944 426.111L757.75 425.306L757.722 424.778L757 424z"/>
<path style="fill:#aec4e1; stroke:none;" d="M581 476L581.778 476.722L582.306 476.75L583.111 476.944L584.028 476.972L586 477L588 477L591 477L593 477L601 477L611 477L616 477L648 477L680 477L688 477L687.222 476.278L686.694 476.25L685.889 476.056L684.972 476.028L683 476L681 476L678 476L670 476L665 476L658 476L581 476z"/>
<path style="fill:#798ba5; stroke:none;" d="M688 476L688 480L683 480L675 480L672 480L670 480L663 480L660 480L656 480L652 480L646 480L645 480L638 480L635 480L632 480L624 480L619 480L616 480L612 480L607 480L599 480L589 480L587 480L586 480L585 479.972L584.028 479.889L582.333 479.333L581.361 478.389L581 477L580.306 477.778L580.306 478.25L580.306 479.528L581 481L613 481L632 481L633 481L634 481L638 481L642 481L643 481L647 481L653 481L658 481L663 481L667 481L673 481L677 481L678 481L680 481L688 481L689 480L688.944 478.056L688.75 477.25L688.722 476.778L688 476z"/>
<path style="fill:#284c75; stroke:none;" d="M689 476L689 480L689.722 479.222L689.722 478.722L689.889 478L689.722 476.778L689 476z"/>
<path style="fill:#9aa6b3; stroke:none;" d="M840 476L840.778 476.722L841.306 476.75L842.111 476.944L843.028 476.972L845 477L846 477L848 477L864 477L877 477L885 477L889 477L895 477L903 477L911 477L915 477L916 477L918 477L919 477L925 477L924.222 476.278L923.694 476.25L922.889 476.056L921.972 476.028L920 476L919 476L917 476L901 476L896 476L888 476L884 476L876 476L875 476L872 476L870 476L866 476L850 476L846 476L840 476M1063 477L1063 480L1064 481L1066.06 481L1068 481L1070 481L1072 481L1073 481L1074 481L1075 481L1080 481L1081 481L1082 481L1084 481L1088 481L1089 481L1090 481L1095 481L1103 481L1104 481L1106 481L1109 481L1110 481L1112 481L1114 481L1115 481L1117 481L1119 481L1120 481L1122 481L1127 481L1128 481L1129 481L1133 481L1138 481L1140 481L1144 481L1152 481L1156 481L1158 481L1160 481L1161 481L1165 481L1166 481L1169 481L1172 481L1173 481L1175 481L1176 481L1177 481L1179 481L1181 481L1183 481L1187 481L1187.94 481L1189.5 481L1191 481L1190.22 480.278L1189.69 480.25L1188.89 480.056L1187.97 480.028L1186 480L1184 480L1180 480L1178 480L1177 480L1175 480L1171 480L1170 480L1168 480L1167 480L1163 480L1159 480L1158 480L1156 480L1155 480L1154 480L1150 480L1149 480L1145 480L1143 480L1142 480L1141 480L1135 480L1134 480L1130 480L1128 480L1126 480L1125 480L1121 480L1117 480L1116 480L1115 480L1114 480L1113 480L1111 480L1095 480L1090 480L1086 480L1085 480L1084 480L1081 480L1079 480L1077 480L1069 480L1067.06 480L1064 480L1064 477L1066.06 477L1068 477L1070 477L1072 477L1073 477L1074 477L1075 477L1080 477L1081 477L1082 477L1084 477L1088 477L1089 477L1090 477L1095 477L1103 477L1104 477L1106 477L1109 477L1110 477L1112 477L1114 477L1115 477L1117 477L1119 477L1120 477L1122 477L1127 477L1128 477L1129 477L1133 477L1138 477L1140 477L1144 477L1152 477L1156 477L1158 477L1160 477L1161 477L1165 477L1166 477L1169 477L1172 477L1173 477L1175 477L1176 477L1177 477L1179 477L1181 477L1183 477L1187 477L1187.94 477L1189.5 477L1191 477L1190.22 476.278L1189.69 476.25L1188.89 476.056L1187.97 476.028L1186 476L1184 476L1181 476L1177 476L1176 476L1175 476L1174 476L1172 476L1171 476L1168 476L1160 476L1159 476L1157 476L1153 476L1151 476L1148 476L1140 476L1139 476L1138 476L1137 476L1136 476L1131 476L1129 476L1127 476L1126 476L1125 476L1117 476L1116 476L1114 476L1113 476L1105 476L1102 476L1098 476L1094 476L1093 476L1077 476L1076 476L1075 476L1071 476L1069 476L1067 476.028L1066.06 476.056L1065.06 476.25L1064.5 476.278L1063 477M1353 476L1353.78 476.722L1354.31 476.75L1355.11 476.944L1356.03 476.972L1357 477L1359 477L1360 477L1362 477L1366 477L1370 477L1375 477L1376 477L1380 477L1381 477L1382 477L1383 477L1387 477L1388 477L1392 477L1392.94 477L1394.5 477L1396 477L1395.22 476.278L1394.69 476.25L1393.89 476.056L1392.97 476.028L1392 476L1390 476L1388 476L1387 476L1383 476L1381 476L1379 476L1378 476L1376 476L1375 476L1371 476L1370 476L1369 476L1365 476L1363 476L1362 476L1360 476L1359 476L1357 476L1356.06 476L1353 476z"/>
<path style="fill:#807048; stroke:none;" d="M839 477L839 480L839.694 479.25L839.694 478.806L839.694 477.75L839 477z"/>
<path style="fill:#030304; stroke:none;" d="M840 477L840 480L866 480L882 480L886 480L887 480L895 480L897 480L902 480L902 477L895 477L890 477L882 477L878 477L877 477L876 477L872 477L840 477z"/>
<path style="fill:#284c75; stroke:none;" d="M902 477L902 480L904 480L904 477L902 477z"/>
<path style="fill:#030304; stroke:none;" d="M904 477L904 480L908 480L909 480L915 480L918 480L923.5 480L925 480L925 477L921 477L917 477L916 477L908 477L904 477z"/>
<path style="fill:#798ba5; stroke:none;" d="M925 477L925 480L925.694 479.25L925.694 478.806L925.694 477.75L925 477z"/>
<path style="fill:#030304; stroke:none;" d="M1064 477L1064 480L1067.06 480L1071 480L1075 480L1083 480L1084 480L1092 480L1100 480L1101 480L1102 480L1110 480L1111 480L1112 480L1114 480L1115 480L1118 480L1120 480L1128 480L1132 480L1140 480L1141 480L1143 480L1144.94 480L1146.5 480L1148 480L1148 477L1140 477L1136 477L1135 477L1134 477L1132 477L1129 477L1128 477L1126 477L1125 477L1123 477L1119 477L1111 477L1110 477L1109 477L1108 477L1106 477L1102 477L1101 477L1099 477L1098 477L1096 477L1092 477L1091 477L1090 477L1088 477L1085 477L1080 477L1079 477L1078 477L1070 477L1067.06 477L1064 477z"/>
<path style="fill:#375f91; stroke:none;" d="M1148 477L1148 480L1148.69 479.25L1148.69 478.806L1148.69 477.75L1148 477z"/>
<path style="fill:#030304; stroke:none;" d="M1149 477L1149 480L1150.5 480L1152.06 480L1153 480L1155 480L1156 480L1160 480L1161 480L1163 480L1168 480L1169 480L1170 480L1174 480L1179 480L1183 480L1187 480L1187.94 480L1189.5 480L1191 480L1191 477L1188.94 477L1187.94 477L1185 477L1184 477L1182 477L1180 477L1179 477L1177 477L1175 477L1174 477L1172 477L1164 477L1160 477L1157 477L1155 477L1154 477L1152.06 477L1149 477z"/>
<path style="fill:#798ba5; stroke:none;" d="M1191 477L1191 480L1191.69 479.25L1191.69 478.806L1191.69 477.75L1191 477z"/>
<path style="fill:#aec4e1; stroke:none;" d="M1352 477L1352 480L1352.69 479.25L1352.69 478.806L1352.69 477.75L1352 477z"/>
<path style="fill:#030304; stroke:none;" d="M1353 477L1353 480L1355.06 480L1356.06 480L1358 480L1359 480L1360 480L1361 480L1365 480L1366 480L1368 480L1370 480L1371 480L1372 480L1373 480L1377 480L1378 480L1379 480L1383 480L1385 480L1389 480L1391 480L1391.94 480L1392.94 480L1395 480L1395 477L1392.94 477L1391.94 477L1391 477L1388 477L1386 477L1380 477L1379 477L1376 477L1375 477L1373 477L1372 477L1370 477L1369 477L1365 477L1357 477L1356.06 477L1353 477z"/>
<path style="fill:#375f91; stroke:none;" d="M1395 477L1395 480L1395.69 479.25L1395.69 478.806L1395.69 477.75L1395 477z"/>
<path style="fill:#9aa6b3; stroke:none;" d="M840 480L840.778 480.722L841.306 480.75L842.111 480.944L843.028 480.972L845 481L846 481L848 481L864 481L877 481L885 481L889 481L895 481L903 481L911 481L915 481L916 481L918 481L919 481L925 481L924.222 480.278L923.694 480.25L922.889 480.056L921.972 480.028L920 480L919 480L917 480L901 480L896 480L888 480L884 480L876 480L875 480L872 480L870 480L866 480L850 480L846 480L840 480M1353 480L1353.78 480.722L1354.31 480.75L1355.11 480.944L1356.03 480.972L1357 481L1359 481L1360 481L1362 481L1366 481L1367 481L1371 481L1372 481L1373 481L1377 481L1381 481L1382 481L1386 481L1387 481L1389 481L1391 481L1391.94 481L1392.94 481L1395 481L1394.22 480.278L1393.69 480.25L1392.89 480.056L1391.97 480.028L1391 480L1389 480L1387 480L1383 480L1382 480L1374 480L1370 480L1362 480L1358 480L1356.06 480L1355.06 480L1353 480z"/>
<path style="fill:#aec4e1; stroke:none;" d="M513 546L513.778 546.722L514.306 546.75L515.111 546.944L516.028 546.972L517 547L518 547L520 547L533 547L538 547L542 547L543 547L552 547L559 547L561 547L569 547L570 547L579 547L580 547L581 547L586 547L587 547L590 547L598 547L615 547L619 547L635 547L637 547L645 547L653 547L655 547L657 547L660 547L664 547L675 547L678 547L683 547L684 547L688 547L694 547L697 547L705 547L710 547L713 547L717 547L722 547L730 547L731 547L739 547L743 547L748 547L750 547L758 547L757.222 546.278L756.694 546.25L755.889 546.056L754.972 546.028L754 546L753 546L751 546L747 546L746 546L744 546L743 546L739 546L738 546L715 546L709 546L706 546L700 546L696 546L690 546L688 546L686 546L681 546L673 546L668 546L666 546L662 546L661 546L653 546L637 546L635 546L616 546L613 546L596 546L595 546L591 546L572 546L570 546L523 546L513 546M513 548L513.778 548.722L514.306 548.75L515.111 548.944L516.028 548.972L517 549L518 549L520 549L533 549L534 549L581 549L613 549L618 549L624 549L634 549L635 549L640 549L646 549L651 549L715 549L717 549L722 549L726 549L734 549L736 549L741 549L742 549L758 549L758 553L758 681L760.056 681L763 681L771 681L774 681L779 681L789 681L805 681L813 681L815 681L819 681L825 681L827 681L832 681L840 681L843 681L847 681L855 681L871 681L873 681L874 681L878 681L882 681L914 681L919 681L924 681L930 681L946 681L954 681L959 681L975 681L979 681L983 681L985 681L987 681L988 681L990 681L998 681L1000 681L1008 681L1009 681L1010 681L1018 681L1024 681L1025 681L1033 681L1034 681L1035 681L1043 681L1044 681L1045 681L1050 681L1051 681L1055 681L1056 681L1064 681L1065 681L1073 681L1075 681L1091 681L1092 681L1093 681L1094 681L1102 681L1104 681L1112 681L1113 681L1114 681L1116 681L1132 681L1133 681L1141 681L1142 681L1146 681L1150 681L1151 681L1153 681L1161 681L1162 681L1163 681L1164 681L1172 681L1173 681L1181 681L1185 681L1190 681L1191 681L1193 681L1194 681L1202 681L1204 681L1208 681L1210 681L1212 681L1213 681L1214 681L1222 681L1223 681L1224 681L1225 681L1229 681L1230 681L1231 681L1232 681L1233 681L1234 681L1238 681L1239 681L1244 681L1245 681L1250 681L1251 681L1252 681L1254 681L1255 681L1257 681L1265 681L1297 681L1298 681L1300 681L1302 681L1303 681L1304 681L1320 681L1321 681L1323 681L1324 681L1332 681L1336 681L1337 681L1338 681L1342 681L1343 681L1344 681L1346 681L1347 681L1348 681L1350 681L1352 681L1353 681L1354 681L1358 681L1359 681L1360 681L1361 681L1363 681L1371 681L1375 681L1376 681L1384 681L1387 681L1395 681L1399 681L1401 681L1405 681L1406 681L1408 681L1410 681L1413 681L1415 681L1423 681L1455 681L1459 681L1463 681L1464 681L1468 681L1469 681L1473 681L1474 681L1475 681L1478 681L1486 681L1487 681L1491 681L1492 681L1493 681L1495.94 681L1498 681L1498 670L1498 668L1498 663L1498 635L1498 634L1498 629L1498 549L1466 549L1463 549L1459 549L1458 549L1454 549L1453 549L1452 549L1444 549L1440 549L1439 549L1438 549L1437 549L1433 549L1430 549L1427 549L1426 549L1410 549L1409 549L1401 549L1397 549L1396 549L1395 549L1393 549L1392 549L1389 549L1385 549L1381 549L1379 549L1371 549L1370 549L1368 549L1366 549L1365 549L1363 549L1362 549L1358 549L1355 549L1353 549L1351 549L1343 549L1335 549L1334 549L1330 549L1328 549L1325 549L1324 549L1323 549L1322 549L1318 549L1314 549L1313 549L1309 549L1308 549L1306 549L1304 549L1300 549L1296 549L1295 549L1294 549L1293 549L1292 549L1288 549L1287 549L1283 549L1282 549L1278 549L1276 549L1275 549L1271 549L1269 549L1268 549L1267 549L1259 549L1255 549L1250 549L1246 549L1245 549L1241 549L1240 549L1236 549L1235 549L1234 549L1232 549L1224 549L1222 549L1220 549L1218 549L1214 549L1198 549L1197 549L1191 549L1190 549L1189 549L1187 549L1186 549L1185 549L1183 549L1175 549L1173 549L1172 549L1170 549L1169 549L1165 549L1157 549L1156 549L1152 549L1151 549L1150 549L1149 549L1145 549L1137 549L1136 549L1134 549L1132 549L1129 549L1127 549L1126 549L1124 549L1122 549L1114 549L1113 549L1109 549L1108 549L1107 549L1106 549L1105 549L1101 549L1093 549L1092 549L1088 549L1087 549L1071 549L1070 549L1066 549L1065 549L1061 549L1053 549L1052 549L1051 549L1049 549L1047 549L1039 549L1037 549L1036 549L1031 549L1030 549L1026 549L1021 549L1017 549L1016 549L1012 549L1011 549L1010 549L1007 549L1004 549L999 549L998 549L996 549L995 549L987 549L983 549L979 549L977 549L973 549L967 549L966 549L962 549L961 549L959 549L955 549L953 549L952 549L950 549L949 549L945 549L940 549L932 549L928 549L920 549L919 549L855 549L851 549L847 549L846 549L844 549L839 549L831 549L823 549L820 549L814 549L806 549L790 549L785 549L777 549L772 549L766 549L764 549L763 549L761 548.917L759 548.611L758 548.389L756 548.083L754 548L753 548L751 548L745 548L737 548L729 548L728 548L727 548L726 548L721 548L713 548L710 548L704 548L700 548L694 548L678 548L674 548L668 548L657 548L633 548L628 548L620 548L610 548L591 548L590 548L555 548L535 548L513 548z"/>
<path style="fill:#284c75; stroke:none;" d="M513 549L513 681L532 681L543 681L552 681L556 681L561 681L570 681L575 681L583 681L591 681L601 681L602 681L613 681L618 681L634 681L637 681L645 681L657 681L662 681L668 681L687 681L688 681L690 681L698 681L702 681L707 681L717 681L723 681L727 681L732 681L742 681L743 681L745 681L751 681L752 681L753 681L758 681L757.222 680.278L756.694 680.25L755.889 680.056L754.972 680.028L754 680L753 680L751 680L747 680L746 680L744 680L743 680L739 680L731 680L729 680L727 680L726 680L724 680L722 680L714 680L709 680L702 680L697 680L691 680L689 680L686 680L680 680L679 680L677 680L672 680L671 680L667 680L659 680L657 680L654 680L646 680L641 680L633 680L629 680L621 680L611 680L574 680L566 680L546 680L514 680L514 550L530 550L531 550L543 550L552 550L556 550L558 550L559 550L563 550L568 550L569 550L580 550L585 550L593 550L604 550L615 550L616 550L617 550L628 550L632 550L650 550L654 550L656 550L659 550L663 550L669 550L674 550L675 550L683 550L687 550L688 550L695 550L711 550L736 550L741 550L743 550L747 550L751 550L752 550L758 550L757.222 549.278L756.694 549.25L755.889 549.056L754.972 549.028L754 549L753 549L751 549L747 549L746 549L744 549L743 549L739 549L738 549L715 549L709 549L706 549L700 549L696 549L690 549L687 549L683 549L678 549L676 549L672 549L671 549L670 549L667 549L661 549L648 549L647 549L643 549L638 549L636 549L628 549L606 549L598 549L582 549L581 549L564 549L563 549L562 549L561 549L544 549L535 549L531 549L523 549L513 549z"/>
<path style="fill:#375f91; stroke:none;" d="M514 550L514 680L522 680L545 680L565 680L599 680L600 680L605 680L615 680L638 680L654 680L658 680L674 680L676 680L679 680L684 680L688 680L693 680L699 680L715 680L723 680L727 680L733 680L734 680L750 680L758 680L758 673L758 668L758 656L758 646L758 645L758 639L758 627L758 550L755.944 550L754.944 550L746 550L742 550L739 550L733 550L732 550L716 550L710 550L706 550L700 550L696 550L690 550L666 550L664 550L632 550L631 550L621 550L618 550L616 550L611 550L601 550L599 550L594 550L589 550L581 550L579 550L571 550L566 550L564 550L559 550L540 550L530 550L514 550z"/>
<path style="fill:#284c75; stroke:none;" d="M549 600L549.778 600.722L550.306 600.75L551.111 600.944L552.028 600.972L553 601L555 601L556 601L558 601L563 601L567 601L572 601L574 601L580 601L596 601L600 601L605 601L615 601L626 601L631 601L656 601L678 601L682 601L687 601L719 601L718.222 600.278L717.694 600.25L716.889 600.056L715.972 600.028L715 600L713 600L712 600L710 600L708 600L705 600L697 600L694 600L688 600L687 600L682 600L674 600L672 600L667 600L665 600L660 600L652 600L644 600L639 600L632 600L627 600L626 600L621 600L619 600L616 600L612 600L599 600L594 600L554 600L549 600z"/>
<path style="fill:#aec4e1; stroke:none;" d="M549 602L549.778 602.722L550.306 602.75L551.111 602.944L552.028 602.972L553 603L555 603L556 603L558 603L563 603L597 603L608 603L610 603L613 603L630 603L656 603L720 603L719.222 602.278L718.694 602.25L717.889 602.056L716.972 602.028L716 602L714 602L713 602L711 602L706 602L690 602L682 602L681 602L672 602L667 602L665 602L660 602L657 602L653 602L644 602L635 602L610 602L606 602L596 602L549 602z"/>
<path style="fill:#798ba5; stroke:none;" d="M720 602L720 606L715 606L709 606L705 606L704 606L702 606L701 606L695 606L690 606L688 606L680 606L673 606L665 606L663 606L660 606L656 606L643 606L642 606L637 606L631 606L630 606L625 606L617 606L612 606L605 606L600 606L593 606L592 606L591 606L590 606L589 606L578 606L577 606L576 606L560 606L557 606L555 606L553 605.972L552.028 605.889L550.333 605.333L549.361 604.389L549 603L548.306 603.778L548.306 604.25L548.306 605.528L549 607L551.056 607L552.056 607L576 607L608 607L610 607L613 607L630 607L631 607L636 607L661 607L662 607L670 607L680 607L696 607L704 607L720 607L721 606L720.944 604.056L720.75 603.25L720.722 602.778L720 602z"/>
<path style="fill:#9aa6b3; stroke:none;" d="M871 602L872 603L871 602z"/>
<path style="fill:#807048; stroke:none;" d="M871 606L871.722 605.278L871.75 604.75L872 603L874.056 603L893 603L892.222 602.278L891.694 602.25L890.889 602.056L889.972 602.028L889 602L887 602L886 602L883 602L880 602L878 602L876 602L875 602.028L874.028 602.111L873.111 602.333L872.333 602.722L871.333 604.056L871.111 604.528L871 606M1031 606L1031.72 605.278L1031.75 604.75L1032 603L1035.06 603L1037 603L1038 603L1039 603L1043 603L1045 603L1046 603L1048 603L1049 603L1065 603L1066 603L1074 603L1082 603L1083 603L1084 603L1085 603L1086 603L1088 603L1089 603L1091 603L1094 603L1095 603L1096 603L1097 603L1099 603L1101 603L1103 603L1108 603L1112 603L1116 603L1117 603L1121 603L1122 603L1124 603L1127 603L1129 603L1130 603L1132 603L1133 603L1134 603L1135 603L1137 603L1141 603L1142 603L1143 603L1144 603L1148 603L1156 603L1157 603L1161 603L1165 603L1166 603L1168 603L1169 603L1172 603L1174 603L1177 603L1179 603L1180 603L1182 603L1183 603L1184 603L1188 603L1196 603L1197 603L1198 603L1199 603L1201 603L1202 603L1204 603L1206 603L1210 603L1211 603L1213 603L1217 603L1218 603L1219.94 603L1220.94 603L1223 603L1222.22 602.278L1221.69 602.25L1220.89 602.056L1219.97 602.028L1219 602L1217 602L1215 602L1210 602L1206 602L1205 602L1202 602L1198 602L1197 602L1195 602L1194 602L1192 602L1191 602L1189 602L1188 602L1187 602L1183 602L1182 602L1180 602L1179 602L1171 602L1169 602L1153 602L1151 602L1149 602L1148 602L1140 602L1139 602L1138 602L1137 602L1129 602L1128 602L1126 602L1124 602L1123 602L1119 602L1117 602L1109 602L1108 602L1100 602L1099 602L1091 602L1090 602L1088 602L1084 602L1081 602L1079 602L1077 602L1075 602L1074 602L1072 602L1071 602L1069 602L1065 602L1064 602L1063 602L1062 602L1060 602L1059 602L1055 602L1054 602L1046 602L1045 602L1043 602L1042 602L1039 602L1037 602L1035 602.028L1034.03 602.111L1033.11 602.333L1032.33 602.722L1031.72 603.278L1031.33 604.056L1031 606M1353 602L1353.78 602.722L1354.31 602.75L1355.11 602.944L1356.03 602.972L1357 603L1359 603L1361 603L1365 603L1366 603L1367 603L1371 603L1372 603L1373 603L1377 603L1381 603L1382 603L1386 603L1387 603L1389 603L1391 603L1391.94 603L1392.94 603L1395 603L1394.22 602.278L1393.69 602.25L1392.89 602.056L1391.97 602.028L1391 602L1389 602L1387 602L1383 602L1382 602L1374 602L1370 602L1362 602L1358 602L1356.06 602L1355.06 602L1353 602z"/>
<path style="fill:#798ba5; stroke:none;" d="M1395 602L1396 603L1395 602z"/>
<path style="fill:#030304; stroke:none;" d="M872 603L872 606L874.056 606L893 606L893 603L887 603L884 603L880 603L872 603z"/>
<path style="fill:#798ba5; stroke:none;" d="M893 603L893 606L893.694 605.25L893.694 604.806L893.694 603.75L893 603z"/>
<path style="fill:#030304; stroke:none;" d="M1032 603L1032 606L1040 606L1041 606L1042 606L1043 606L1044 606L1046 606L1048 606L1049 606L1050 606L1051 606L1055 606L1057 606L1061 606L1062 606L1070 606L1071 606L1075 606L1076 606L1077 606L1078 606L1079 606L1081 606L1084 606L1085 606L1089 606L1090 606L1091 606L1095 606L1099 606L1100 606L1101 606L1102 606L1106 606L1107 606L1109 606L1112.94 606L1113.94 606L1116 606L1116 603L1113.94 603L1112.94 603L1111 603L1110 603L1106 603L1102 603L1101 603L1100 603L1099 603L1097 603L1065 603L1063 603L1059 603L1057 603L1054 603L1053 603L1052 603L1051 603L1047 603L1046 603L1038 603L1036 603L1035.06 603L1032 603z"/>
<path style="fill:#284c75; stroke:none;" d="M1116 603L1116 606L1116.69 605.25L1116.69 604.806L1116.69 603.75L1116 603z"/>
<path style="fill:#030304; stroke:none;" d="M1117 603L1117 606L1119.06 606L1120.06 606L1121 606L1122 606L1123 606L1125 606L1127 606L1129 606L1134 606L1136 606L1138 606L1139 606L1141 606L1145 606L1146 606L1147 606L1148 606L1180 606L1180 603L1172 603L1168 603L1164 603L1163 603L1159 603L1158 603L1157 603L1149 603L1148 603L1144 603L1143 603L1142 603L1141 603L1140 603L1139 603L1138 603L1130 603L1128 603L1127 603L1123 603L1122 603L1120.06 603L1119.06 603L1117 603z"/>
<path style="fill:#284c75; stroke:none;" d="M1180 603L1180 606L1180.69 605.25L1180.69 604.806L1180.69 603.75L1180 603z"/>
<path style="fill:#030304; stroke:none;" d="M1181 603L1181 606L1183.06 606L1185 606L1187 606L1188 606L1189 606L1193 606L1201 606L1203 606L1205 606L1210 606L1211 606L1212 606L1213 606L1214 606L1218 606L1219.94 606L1220.94 606L1223 606L1223 603L1221.5 603L1219.94 603L1219 603L1215 603L1210 603L1209 603L1207 603L1206 603L1204 603L1203 603L1201 603L1200 603L1198 603L1197 603L1196 603L1194 603L1192 603L1191 603L1189 603L1188 603L1186 603L1185 603L1184.06 603L1181 603z"/>
<path style="fill:#375f91; stroke:none;" d="M1223 603L1223 606L1223.69 605.25L1223.69 604.806L1223.69 603.75L1223 603z"/>
<path style="fill:#9aa6b3; stroke:none;" d="M1352 603L1352.25 605L1352.28 605.556L1353 607L1355.06 607L1357 607L1361 607L1362 607L1363 607L1364 607L1366 607L1367 607L1371 607L1372 607L1373 607L1377 607L1378 607L1379 607L1383 607L1385 607L1389 607L1391 607L1391.94 607L1392.94 607L1395 607L1394.22 606.278L1393.69 606.25L1392.89 606.056L1391.97 606.028L1390 606L1388 606L1385 606L1381 606L1379 606L1376 606L1375 606L1373 606L1372 606L1364 606L1361 606L1359 606L1357 605.972L1356.03 605.889L1354.31 605.306L1353.08 604.194L1352.83 603.75L1352 603z"/>
<path style="fill:#030304; stroke:none;" d="M1353 603L1353 606L1355.06 606L1359 606L1360 606L1361 606L1365 606L1367 606L1371 606L1372 606L1373 606L1377 606L1378 606L1379 606L1383 606L1385 606L1389 606L1391 606L1391.94 606L1392.94 606L1395 606L1395 603L1392.94 603L1391.94 603L1391 603L1388 603L1386 603L1380 603L1379 603L1376 603L1375 603L1373 603L1372 603L1370 603L1369 603L1365 603L1357 603L1356.06 603L1353 603z"/>
<path style="fill:#284c75; stroke:none;" d="M1395 603L1395 606L1395.69 605.25L1395.69 604.806L1395.69 603.75L1395 603z"/>
<path style="fill:#9aa6b3; stroke:none;" d="M872 606L872.778 606.722L873.306 606.75L874.111 606.944L875.028 606.972L877 607L878 607L880 607L884 607L886 607L887 607L889 607L893 607L892.222 606.278L891.694 606.25L890.889 606.056L889.972 606.028L888 606L887 606L885 606L884 606L881 606L879 606L875.056 606L872 606M1032 606L1032.78 606.722L1033.31 606.75L1034.11 606.944L1035.03 606.972L1036 607L1037 607L1039 607L1047 607L1048 607L1049 607L1053 607L1055 607L1060 607L1068 607L1069 607L1073 607L1078 607L1079 607L1081 607L1084 607L1085 607L1087 607L1088 607L1091 607L1092 607L1100 607L1102 607L1118 607L1126 607L1130 607L1138 607L1140 607L1142 607L1147 607L1148 607L1149 607L1150 607L1155 607L1159 607L1160 607L1162 607L1164 607L1166 607L1170 607L1171 607L1172 607L1174 607L1177 607L1178 607L1180 607L1182 607L1183 607L1184 607L1185 607L1186 607L1194 607L1198 607L1203 607L1205 607L1213 607L1214 607L1216 607L1218 607L1219.94 607L1220.94 607L1223 607L1222.22 606.278L1221.69 606.25L1220.89 606.056L1219.97 606.028L1219 606L1218 606L1216 606L1215 606L1213 606L1207 606L1199 606L1195 606L1190 606L1187 606L1183 606L1179 606L1178 606L1170 606L1169 606L1167 606L1163 606L1162 606L1160 606L1159 606L1155 606L1154 606L1150 606L1149 606L1145 606L1143 606L1142 606L1141 606L1133 606L1131 606L1115 606L1113 606L1111 606L1107 606L1106 606L1098 606L1097 606L1096 606L1095 606L1090 606L1086 606L1085 606L1084 606L1081 606L1079 606L1077 606L1075 606L1071 606L1070 606L1062 606L1061 606L1060 606L1059 606L1058 606L1050 606L1049 606L1047 606L1045 606L1044 606L1043 606L1042 606L1041 606L1039 606L1038 606L1036 606L1035.06 606L1032 606M513 683L513.778 683.722L514.306 683.75L515.111 683.944L516.028 683.972L517 684L518 684L520 684L533 684L534 684L581 684L582 684L607 684L608 684L627 684L628 684L632 684L634 684L654 684L661 684L669 684L671 684L676 684L684 684L685 684L687 684L697 684L701 684L702 684L707 684L710 684L714 684L720 684L736 684L741 684L742 684L758 684L757.222 683.278L756.694 683.25L755.889 683.056L754.972 683.028L754 683L753 683L751 683L747 683L746 683L744 683L743 683L739 683L738 683L715 683L709 683L706 683L700 683L696 683L690 683L687 683L683 683L678 683L676 683L672 683L671 683L670 683L662 683L615 683L599 683L591 683L581 683L523 683L513 683z"/>
<path style="fill:#284c75; stroke:none;" d="M513 684L513 818L520 818L557 818L561 818L587 818L605 818L616 818L626 818L636 818L661 818L693 818L698 818L700 818L708 818L737 818L738 818L742 818L746 818L752 818L753 818L757 818L757 728L757 701L757 693L757 691L757 690L757.083 688L757.222 687.056L757.417 686.056L758 684L742 684L734 684L729 684L723 684L722 684L658 684L657 684L655 684L632 684L627 684L623 684L619 684L614 684L604 684L600 684L593 684L585 684L565 684L564 684L558 684L539 684L538 684L529 684L513 684z"/>
<path style="fill:#375f91; stroke:none;" d="M514 685L514 817L576 817L595 817L602 817L640 817L641 817L646 817L648 817L671 817L678 817L682 817L687 817L697 817L698 817L699 817L700 817L702 817L705 817L709 817L717 817L721 817L727 817L728 817L730 817L738 817L743 817L751 817L752 817L756 817L756 813L756 685L740 685L737 685L733 685L725 685L723 685L691 685L689 685L686 685L680 685L679 685L675 685L669 685L666 685L662 685L654 685L629 685L627 685L600 685L575 685L573 685L569 685L546 685L514 685M757 685L757 694L757 699L757 818L757.722 817.222L757.75 816.694L757.944 815.889L757.972 814.972L758 813L758 812L758 809L758 789L758 716L758 695L758 692L758 690L757.972 688.028L757.944 687.111L757.75 686.306L757.722 685.778L757 685z"/>
<path style="fill:#284c75; stroke:none;" d="M613 735L613.778 735.722L614.306 735.75L615.111 735.944L616.028 735.972L617 736L619 736L621 736L626 736L631 736L656 736L655.222 735.278L654.694 735.25L653.889 735.056L652.972 735.028L652 735L650 735L648 735L643 735L618 735L613 735z"/>
<path style="fill:#798ba5; stroke:none;" d="M613 736L612 737L612 741L612.722 740.222L612.75 739.75L612.944 738.944L613 737L656 737L656 741L656.722 740.222L656.75 739.75L656.944 738.944L657 737L656 736L654.5 736L652 736L647 736L646 736L643 736L637 736L633 736L630 736L626 736L621 736L613 736z"/>
<path style="fill:#284c75; stroke:none;" d="M657 737L657 741L657.722 740.222L657.722 739.722L657.889 739L657.722 737.778L657 737z"/>
<path style="fill:#9aa6b3; stroke:none;" d="M796 737L797 738L796 737z"/>
<path style="fill:#375f91; stroke:none;" d="M797 737L797.778 737.722L798.306 737.75L799.111 737.944L800.028 737.972L801 738L802 738L804 738L809 738L817 738L816.222 737.278L815.694 737.25L814.889 737.056L813.972 737.028L813 737L812 737L810 737L805 737L797 737z"/>
<path style="fill:#798ba5; stroke:none;" d="M817.667 737.333L817.667 737.667L818.333 737.667L818 737.333L817.667 737.333z"/>
<path style="fill:#375f91; stroke:none;" d="M819 737L819.778 737.722L820.306 737.75L821.111 737.944L822.028 737.972L824 738L825 738L827 738L843 738L845 738L846 738L850 738L857 738L860 738L865 738L866 738L870 738L872 738L876 738L884 738L887 738L889 738L897 738L902 738L901.222 737.278L900.694 737.25L899.889 737.056L898.972 737.028L897 737L896 737L894 737L878 737L870 737L866 737L862 737L854 737L852 737L844 737L839 737L836 737L832 737L828 737L823 737L819 737z"/>
<path style="fill:#798ba5; stroke:none;" d="M902.667 737.333L902.667 737.667L903.333 737.667L903 737.333L902.667 737.333z"/>
<path style="fill:#375f91; stroke:none;" d="M904 737L904.778 737.722L905.306 737.75L906.111 737.944L907.028 737.972L908 738L909 738L911 738L916 738L922 738L926 738L927 738L935 738L939 738L941 738L944 738L946 738L951 738L959 738L967 738L966.222 737.278L965.694 737.25L964.889 737.056L963.972 737.028L963 737L962 737L960 737L956 737L951 737L949 737L944 737L936 737L928 737L924 737L923 737L918 737L917 737L912 737L904 737z"/>
<path style="fill:#798ba5; stroke:none;" d="M967 737L967 741L967.722 740.222L967.889 739L967.722 738.278L967.722 737.778L967 737z"/>
<path style="fill:#9aa6b3; stroke:none;" d="M1094 737L1095 738L1094 737z"/>
<path style="fill:#375f91; stroke:none;" d="M1095 737L1095.78 737.722L1096.31 737.75L1097.11 737.944L1098.03 737.972L1100 738L1101 738L1103 738L1105 738L1106 738L1109 738L1110 738L1112 738L1112.94 738L1113.94 738L1116 738L1115.22 737.278L1114.69 737.25L1113.89 737.056L1112.97 737.028L1111 737L1110 737L1108 737L1106 737L1105 737L1102 737L1098.06 737L1095 737z"/>
<path style="fill:#798ba5; stroke:none;" d="M1116 737L1117 738L1116 737z"/>
<path style="fill:#375f91; stroke:none;" d="M1117 737L1117.78 737.722L1118.31 737.75L1119.11 737.944L1120.03 737.972L1121 738L1123 738L1125 738L1130 738L1131 738L1133 738L1141 738L1145 738L1146 738L1150 738L1151 738L1153 738L1154 738L1155 738L1156.94 738L1159 738L1158.22 737.278L1157.69 737.25L1156.89 737.056L1155.97 737.028L1155 737L1153 737L1151 737L1147 737L1146 737L1144 737L1136 737L1134 737L1128 737L1127 737L1123 737L1117 737z"/>
<path style="fill:#9aa6b3; stroke:none;" d="M1159 737L1160 738L1159 737z"/>
<path style="fill:#aec4e1; stroke:none;" d="M1352 737L1352 741L1352.72 740.222L1352.89 739L1352.72 738.278L1352.72 737.778L1352 737z"/>
<path style="fill:#375f91; stroke:none;" d="M1353 737L1353.78 737.722L1354.31 737.75L1355.11 737.944L1356.03 737.972L1358 738L1360 738L1362 738L1363 738L1371 738L1375 738L1376 738L1384 738L1386 738L1387 738L1389 738L1391 738.028L1391.97 738.111L1393.67 738.667L1394.64 739.611L1395 741L1395.69 740.222L1395.69 739.75L1395.69 738.472L1395 737L1392.94 737L1391.94 737L1391 737L1388 737L1386 737L1380 737L1379 737L1376 737L1375 737L1373 737L1372 737L1370 737L1369 737L1365 737L1357 737L1356.06 737L1353 737z"/>
<path style="fill:#798ba5; stroke:none;" d="M1395 737L1396 738L1395 737z"/>
<path style="fill:#807048; stroke:none;" d="M796 738L796 741L796.694 740.25L796.694 739.806L796.694 738.75L796 738z"/>
<path style="fill:#030304; stroke:none;" d="M797 738L797 741L802 741L810 741L812 741L813 741L814 740.972L814.972 740.889L816.667 740.333L817.639 739.389L818 738L814 738L809 738L801 738L797 738z"/>
<path style="fill:#284c75; stroke:none;" d="M818.333 738.667L818.333 739L818.667 739.333L818.667 739L818.333 738.667z"/>
<path style="fill:#030304; stroke:none;" d="M819 738L819 741L824 741L832 741L836 741L840 741L844 741L848 741L853 741L854 741L856 741L861 741L869 741L874 741L879 741L881 741L882 741L886 741L887 741L895 741L897 741L898 741L899 740.972L899.972 740.889L901.667 740.333L902.639 739.389L903 738L899 738L895 738L893 738L889 738L873 738L869 738L868 738L852 738L850 738L846 738L841 738L840 738L834 738L827 738L819 738z"/>
<path style="fill:#284c75; stroke:none;" d="M903.333 738.667L903.333 739L903.667 739.333L903.667 739L903.333 738.667z"/>
<path style="fill:#030304; stroke:none;" d="M904 738L904 741L905.5 741L909 741L915 741L923 741L925 741L930 741L935 741L937 741L945 741L947 741L949 741L950 741L958 741L960 741L961 741L967 741L967 738L963 738L962 738L961 738L957 738L955 738L947 738L943 738L941 738L938 738L922 738L914 738L913 738L909 738L904 738z"/>
<path style="fill:#807048; stroke:none;" d="M1094 738L1094 741L1094.69 740.25L1094.69 739.806L1094.69 738.75L1094 738z"/>
<path style="fill:#030304; stroke:none;" d="M1095 738L1095 741L1097.06 741L1098.06 741L1099 741L1101 741L1102 741L1106 741L1107 741L1109 741L1112.94 741L1113.94 741L1116 741L1116 738L1108 738L1107 738L1106 738L1102 738L1101 738L1100 738L1098.06 738L1095 738z"/>
<path style="fill:#284c75; stroke:none;" d="M1116 738L1116 741L1116.69 740.25L1116.69 739.806L1116.69 738.75L1116 738z"/>
<path style="fill:#030304; stroke:none;" d="M1117 738L1117 741L1119.06 741L1120.06 741L1122 741L1124 741L1125 741L1127 741L1135 741L1143 741L1144 741L1152 741L1153 741L1155 741L1155.94 741L1156.94 741L1159 741L1159 738L1156.94 738L1155.94 738L1155 738L1151 738L1143 738L1142 738L1134 738L1130 738L1128 738L1126 738L1125 738L1124 738L1123 738L1122 738L1120.06 738L1117 738z"/>
<path style="fill:#798ba5; stroke:none;" d="M1159 738L1159 741L1159.69 740.25L1159.69 739.806L1159.69 738.75L1159 738z"/>
<path style="fill:#030304; stroke:none;" d="M1353 738L1353 741L1355.06 741L1356.06 741L1358 741L1359 741L1360 741L1361 741L1365 741L1366 741L1368 741L1370 741L1371 741L1372 741L1373 741L1377 741L1378 741L1379 741L1383 741L1385 741L1389 741L1391 741L1391.94 741L1392.94 741L1395 741L1395 738L1392.94 738L1391.94 738L1391 738L1388 738L1386 738L1380 738L1379 738L1376 738L1375 738L1373 738L1372 738L1370 738L1369 738L1365 738L1357 738L1356.06 738L1353 738z"/>
<path style="fill:#375f91; stroke:none;" d="M817.667 740.333L817.667 740.667L818.333 740.667L818 740.333L817.667 740.333M902.667 740.333L902.667 740.667L903.333 740.667L903 740.333L902.667 740.333z"/>
</svg>
