<?xml version="1.0" standalone="yes"?>
<svg xmlns="http://www.w3.org/2000/svg" width="2000" height="1000">
<path style="fill:#ffffff; stroke:none;" d="M0 0L0 1.5L0 2.05554L0 6L0 8L0 12L0 17L0 25L0 29L0 33L0 35L0 43L0 47L0 55L0 56L0 61L0 62L0 64L0 66L0 67L0 68L0 73L0 74L0 76L0 84L0 88L0 89L0 94L0 110L0 118L0 119L0 128L0 132L0 134L0 135L0 141L0 145L0 149L0 153L0 155L0 156L0 157L0 159L0 160L0 166L0 174L0 180L0 181L0 186L0 190L0 196L0 212L0 222L0 238L0 246L0 256L0 260L0 266L0 270L0 276L0 278L0 283L0 287L0 292L0 324L0 326L0 342L0 346L0 350L0 356L0 372L0 374L0 376L0 382L0 383L0 388L0 396L0 424L0 453L0 454L0 480L0 542L0 1000L350 1000L651 1000L655 1000L657 1000L660 1000L670 1000L674 1000L676 1000L679 1000L743 1000L744 1000L752 1000L756 1000L762 1000L767 1000L771 1000L776 1000L777 1000L781 1000L782 1000L790 1000L798 1000L802 1000L807 1000L815 1000L823 1000L831 1000L835 1000L839 1000L840 1000L845 1000L846 1000L849 1000L851 1000L855 1000L860 1000L907 1000L915 1000L920 1000L922 1000L930 1000L932 1000L964 1000L972 1000L974 1000L979 1000L987 1000L991 1000L992 1000L996 1000L997 1000L1005 1000L1008 1000L1014 1000L1018 1000L1026 1000L1027 1000L1031 1000L1033 1000L1034 1000L1037 1000L1038 1000L1039 1000L1040 1000L1041 1000L1045 1000L1053 1000L1054 1000L1058 1000L1060 1000L1061 1000L1063 1000L1064 1000L1080 1000L1084 1000L1100 1000L1102 1000L1110 1000L1111 1000L1112 1000L1116 1000L1124 1000L1125 1000L1129 1000L1130 1000L1138 1000L1139 1000L1140 1000L1148 1000L1149 1000L1150 1000L1152 1000L1154 1000L1156 1000L1158 1000L1160 1000L1161 1000L1165 1000L1166 1000L1170 1000L1178 1000L1186 1000L1187 1000L1195 1000L1196 1000L1198 1000L1199 1000L1201 1000L1203 1000L1204 1000L1208 1000L1210 1000L1218 1000L1220 1000L1221 1000L1222 1000L1223 1000L1224 1000L1225 1000L1229 1000L1230 1000L1231 1000L1232 1000L1234 1000L1235 1000L1240 1000L1248 1000L1249 1000L1254 1000L1258 1000L1262 1000L1263 1000L1265 1000L1269 1000L1270 1000L1278 1000L1279 1000L1280 1000L1281 1000L1285 1000L1286 1000L1290 1000L1291 1000L1292 1000L1296 1000L1297 1000L1305 1000L1310 1000L1314 1000L1322 1000L1326 1000L1327 1000L1328 1000L1332 1000L1333 1000L1334 1000L1338 1000L1339 1000L1340 1000L1345 1000L1346 1000L1347 1000L1351 1000L1355 1000L1360 1000L1361 1000L1377 1000L1378 1000L1386 1000L1387 1000L1388 1000L1396 1000L1400 1000L1401 1000L1405 1000L1406 1000L1407 1000L1408 1000L1409 1000L1411 1000L1415 1000L1416 1000L1420 1000L1421 1000L1429 1000L1437 1000L1438 1000L1442 1000L1443 1000L1447 1000L1448 1000L1449 1000L1450 1000L1451 1000L1455 1000L1456 1000L1460 1000L1461 1000L1469 1000L1470 1000L1471 1000L1487 1000L1491 1000L1492 1000L1500 1000L1501 1000L1505 1000L1506 1000L1514 1000L1522 1000L1526 1000L1527 1000L1530 1000L1534 1000L1538 1000L1539 1000L1547 1000L1549 1000L1553 1000L1554 1000L1558 1000L1559 1000L1560 1000L1564 1000L1572 1000L1573 1000L1581 1000L1584 1000L1588 1000L1589 1000L1590 1000L1591 1000L1592 1000L1595 1000L1597 1000L1598 1000L1600 1000L1601 1000L1605 1000L1613 1000L1614 1000L1615 1000L1616 1000L1618 1000L1620 1000L1624 1000L1625 1000L1627 1000L1628 1000L1632 1000L1636 1000L1637 1000L1638 1000L1642 1000L1646 1000L1647 1000L1648 1000L1652 1000L1653 1000L1654 1000L1656 1000L1658 1000L1659 1000L1660 1000L1661 1000L1663 1000L1667 1000L1668 1000L1684 1000L1685 1000L1689 1000L1693 1000L1694 1000L1710 1000L1711 1000L1715 1000L1723 1000L1724 1000L1728 1000L1729 1000L1730 1000L1732 1000L1733 1000L1737 1000L1741 1000L1742 1000L1743 1000L1745 1000L1748 1000L1752 1000L1753 1000L1761 1000L1764 1000L1768 1000L1769 1000L1770 1000L1773 1000L1777 1000L1778 1000L1779 1000L1783 1000L1799 1000L1803 1000L1804 1000L1812 1000L1813 1000L1815 1000L1816 1000L1820 1000L1824 1000L1828 1000L1829 1000L1833 1000L1836 1000L1838 1000L1839 1000L1843 1000L1844 1000L1848 1000L1849 1000L1851 1000L1859 1000L1863 1000L1865 1000L1866 1000L1868 1000L1872 1000L1873 1000L1881 1000L1885 1000L1887 1000L1890 1000L1894 1000L1898 1000L1899 1000L1900 1000L1905 1000L1907 1000L1908 1000L1912 1000L1913 1000L1917 1000L1918 1000L1919 1000L1923 1000L1924 1000L1928 1000L1931 1000L1932 1000L1933 1000L1935 1000L1939 1000L1943 1000L1944 1000L1945 1000L1950 1000L1952 1000L1955 1000L1956 1000L1957 1000L1989 1000L1993 1000L1994 1000L1995 1000L1997.94 1000L2000 1000L2000 994L2000 978L2000 972L2000 969L2000 949L2000 929L2000 925L2000 917L2000 913L2000 909L2000 904L2000 900L2000 895L2000 893L2000 881L2000 869L2000 865L2000 862L2000 854L2000 853L2000 852L2000 845L2000 835L2000 811L2000 807L2000 802L2000 799L2000 795L2000 785L2000 782L2000 774L2000 760L2000 756L2000 753L2000 745L2000 741L2000 740L2000 739L2000 732L2000 722L2000 720L2000 706L2000 686L2000 685L2000 684L2000 677L2000 667L2000 665L2000 657L2000 653L2000 649L2000 644L2000 632L2000 628L2000 625L2000 617L2000 616L2000 615L2000 608L2000 598L2000 596L2000 582L2000 562L2000 514L2000 510L2000 506L2000 501L2000 491L2000 484L2000 480L2000 474L2000 472L2000 470L2000 469L2000 468L2000 436L2000 388L2000 383L2000 376L2000 366L2000 365L2000 360L2000 354L2000 350L2000 346L2000 344L2000 341L2000 337L2000 336L2000 335L2000 328L2000 318L2000 317L2000 311L2000 310L2000 309L2000 306L2000 302L2000 300L2000 292L2000 290L2000 282L2000 279L2000 271L2000 265L2000 249L2000 245L2000 240L2000 235L2000 227L2000 223L2000 215L2000 214L2000 209L2000 207L2000 202L2000 200L2000 199L2000 197L2000 196L2000 194L2000 193L2000 177L2000 176L2000 172L2000 171L2000 167L2000 162L2000 158L2000 152L2000 147L2000 142L2000 137L2000 136L2000 131L2000 125L2000 117L2000 109L2000 105L2000 97L2000 93L2000 89L2000 85L2000 80L2000 75L2000 69L2000 68L2000 64L2000 54L2000 50L2000 47L2000 39L2000 37L2000 36L2000 34L2000 31L2000 29L2000 19L2000 16L2000 8L2000 0L1997.94 0L1996 0L1995 0L1993 0L1992 0L1988 0L1987 0L1985 0L1983 0L1982 0L1980 0L1978 0L1977 0L1975 0L1971 0L1970 0L1968 0L1966 0L1963 0L1961 0L1960 0L1956 0L1955 0L1951 0L1950 0L1948 0L1944 0L1943 0L1939 0L1938 0L1936 0L1935 0L1931 0L1929 0L1927 0L1926 0L1910 0L1906 0L1905 0L1901 0L1897 0L1881 0L1880 0L1875 0L1873 0L1872 0L1871 0L1855 0L1839 0L1831 0L1823 0L1819 0L1818 0L1816 0L1815 0L1811 0L1807 0L1803 0L1802 0L1801 0L1797 0L1793 0L1791 0L1790 0L1788 0L1784 0L1782 0L1780 0L1779 0L1778 0L1776 0L1768 0L1765 0L1763 0L1762 0L1760 0L1758 0L1756 0L1755 0L1751 0L1750 0L1746 0L1744 0L1740 0L1739 0L1731 0L1729 0L1728 0L1727 0L1725 0L1724 0L1722 0L1718 0L1717 0L1716 0L1684 0L1682 0L1681 0L1679 0L1677 0L1676 0L1672 0L1668 0L1667 0L1665 0L1663 0L1655 0L1647 0L1645 0L1641 0L1640 0L1638 0L1635 0L1632 0L1630 0L1626 0L1624 0L1616 0L1615 0L1613 0L1611 0L1610 0L1608 0L1604 0L1603 0L1599 0L1598 0L1597 0L1593 0L1585 0L1581 0L1580 0L1578 0L1576 0L1575 0L1571 0L1570 0L1562 0L1561 0L1559 0L1557 0L1556 0L1555 0L1547 0L1546 0L1544 0L1542 0L1541 0L1477 0L1473 0L1471 0L1469 0L1468 0L1467 0L1463 0L1461 0L1459 0L1458 0L1456 0L1454 0L1452 0L1450 0L1449 0L1445 0L1441 0L1440 0L1439 0L1436 0L1432 0L1428 0L1427 0L1423 0L1421 0L1420 0L1418 0L1414 0L1413 0L1409 0L1408 0L1407 0L1403 0L1399 0L1398 0L1397 0L1393 0L1392 0L1384 0L1382 0L1381 0L1379 0L1376 0L1375 0L1374 0L1372 0L1368 0L1367 0L1359 0L1355 0L1351 0L1350 0L1346 0L1345 0L1337 0L1333 0L1329 0L1328 0L1320 0L1316 0L1308 0L1304 0L1300 0L1292 0L1291 0L1290 0L1289 0L1285 0L1284 0L1283 0L1279 0L1278 0L1272 0L1270 0L1266 0L1265 0L1261 0L1253 0L1245 0L1243 0L1239 0L1238 0L1234 0L1232 0L1228 0L1227 0L1225 0L1224 0L1222 0L1221 0L1220 0L1216 0L1212 0L1211 0L1210 0L1206 0L1205 0L1201 0L1200 0L1198 0L1197 0L1189 0L1185 0L1183 0L1182 0L1180 0L1178 0L1177 0L1175 0L1171 0L1167 0L1166 0L1158 0L1154 0L1152 0L1150 0L1149 0L1145 0L1141 0L1140 0L1139 0L1135 0L1134 0L1133 0L1132 0L1131 0L1115 0L1111 0L1095 0L1091 0L1083 0L1082 0L1080 0L1076 0L1075 0L1071 0L1069 0L1065 0L1064 0L1063 0L1055 0L1054 0L1052 0L1051 0L1047 0L1043 0L1039 0L1038 0L1037 0L1036 0L1032 0L1028 0L1026 0L1025 0L1021 0L1015 0L1011 0L1009 0L1008 0L1007 0L1006 0L1002 0L1001 0L997 0L996 0L988 0L982 0L981 0L973 0L941 0L937 0L933 0L932 0L927 0L926 0L925 0L893 0L885 0L884 0L883 0L876 0L875 0L872 0L870 0L866 0L865 0L861 0L857 0L853 0L851 0L847 0L846 0L845 0L837 0L833 0L829 0L825 0L820 0L817 0L813 0L809 0L801 0L796 0L794 0L790 0L784 0L780 0L778 0L775 0L773 0L771 0L739 0L735 0L729 0L725 0L721 0L715 0L710 0L702 0L697 0L691 0L689 0L686 0L654 0L649 0L642 0L641 0L640 0L632 0L628 0L624 0L619 0L618 0L617 0L616 0L610 0L609 0L599 0L597 0L596 0L591 0L583 0L576 0L571 0L564 0L563 0L558 0L556 0L546 0L545 0L535 0L534 0L520 0L505 0L504 0L479 0L465 0L450 0L446 0L391 0L336 0L331 0L299 0L264 0L263 0L255 0L254 0L247 0L237 0L197 0L194 0L191 0L171 0L151 0L126 0L123 0L118 0L110 0L103 0L93 0L89 0L84 0L82 0L70 0L66 0L56 0L52 0L48 0L43 0L42 0L41 0L34 0L24 0L0 0z"/>
<path style="fill:#3e3e3e; stroke:none;" d="M325 307L326 308L325 307z"/>
<path style="fill:#000000; stroke:none;" d="M326 307.389L325 307.639L323 308.167L322 308.472L320 309.417L318 310.694L317 311.417L315.083 313.083L313.472 315L312.861 316L311.833 318L311.028 320L310.417 322L310.083 324L310 326L310 327L310 329L310 339L310 340L310 372L310 377L310 383L310 384L310 393L310 415L310 434L310 481L310 556L310 590L310 594L310 596L310 598L310.083 600L310.222 601L310.417 602L310.694 603L311.389 605L311.833 606L312.861 608L313.472 609L315.083 610.972L316.028 611.917L318 613.528L319 614.139L320 614.722L322 615.611L323 615.972L325 616.583L327 616.917L328 616.972L330 617L331 617L334 617L351 617L413 617L628 617L629 617L693 617L694 617L696 617L699 617L705 617L707 617L710 617L712 617L715 617L723 617L727 617L732 617L742 617L743 617L748 617L749 617L765 617L768 617L776 617L777 617L781 617L782 617L786 617L791 617L792 617L794 617L795 617L797 617L801 617L805 617L806 617L808 617L816 617L820 617L836 617L854 617L858 617L863 617L864 617L869 617L875 617L883 617L891 617L895 617L901 617L904 617L908 617L911 617L919 617L925 617L931 617L932 617L933 617L941 617L945 617L946 617L950 617L955 617L957 617L961 617L962 617L966 617L970 617L976 617L992 617L994 617L998 617L1000 617L1016 617L1024 617L1040 617L1041 617L1045 617L1046 617L1050 617L1051 617L1052 617L1053 617L1054 617L1058 617L1060 617L1061 617L1063 617L1064 617L1068 617L1069 617L1070 617L1074 617L1079 617L1081 617L1084 617L1089 617L1091 617L1095 617L1096 617L1098 617L1102 617L1103 617L1107 617L1108 617L1112 617L1114 617L1115 617L1117 617L1119 617L1120 617L1122 617L1127 617L1128 617L1129 617L1133 617L1135 617L1136 617L1137 617L1141 617L1142 617L1147 617L1148 617L1149 617L1153 617L1161 617L1162 617L1165 617L1166 617L1169 617L1172 617L1173 617L1175 617L1183 617L1185 617L1187 617L1189 617L1192 617L1197 617L1200 617L1204 617L1205 617L1213 617L1214 617L1216 617L1219 617L1221 617L1222 617L1224 617L1227 617L1231 617L1233 617L1265 617L1266 617L1270 617L1271 617L1275 617L1276 617L1277 617L1278 617L1282 617L1286 617L1287 617L1288 617L1292 617L1296 617L1297 617L1298 617L1300 617L1302 617L1303 617L1304 617L1307 617L1311 617L1312 617L1313 617L1321 617L1325 617L1326 617L1329 617L1333 617L1341 617L1345 617L1353 617L1354 617L1358 617L1362 617L1363 617L1364 617L1368 617L1432 617L1436 617L1437 617L1441 617L1442 617L1443 617L1444 617L1448 617L1449 617L1452 617L1456 617L1464 617L1472 617L1473 617L1475 617L1476 617L1480 617L1481 617L1482 617L1486 617L1487 617L1489 617L1490 617L1494 617L1495 617L1511 617L1515 617L1520 617L1523 617L1527 617L1528 617L1530 617L1535 617L1536 617L1537 617L1538 617L1541 617L1545 617L1546 617L1547 617L1551 617L1552 617L1560 617L1563 617L1564 617L1568 617L1572 617L1573 617L1589 617L1590 617L1591 617L1592 617L1596 617L1597 617L1598 617L1606 617L1610 617L1611 617L1615 617L1616 617L1618 617L1620 617L1624 617L1625 617L1627 617L1631 617L1632 617L1636 617L1640 617L1641 617L1657 617L1661 617L1665 617L1666 617L1667 617L1671 617L1675 617L1676 617L1692 617L1695 617L1696 617L1698 616.972L1699 616.917L1701 616.583L1702 616.306L1704 615.611L1705 615.167L1706 614.722L1708 613.528L1709.97 611.917L1710.92 610.972L1712.53 609L1713.14 608L1714.17 606L1714.61 605L1715.31 603L1715.58 602L1715.78 601L1715.92 600L1716 598L1716 596L1716 594L1716 593L1716 591L1716 589L1716 585L1716 581L1716 579L1716 575L1716 573L1716 571L1716 570L1716 568L1716 564L1716 560L1716 558L1716 554L1716 543L1716 541L1716 537L1716 535L1716 533L1716 529L1716 528L1716 526L1716 524L1716 520L1716 512L1716 511L1716 509L1716 507L1716 503L1716 501L1716 499L1716 498L1716 496L1716 492L1716 488L1716 484L1716 480L1716 478L1716 476L1716 474L1716 473L1716 471L1716 467L1716 465L1716 461L1716 450L1716 428L1716 426L1716 425L1716 423L1716 419L1716 415L1716 411L1716 409L1716 405L1716 394L1716 386L1716 382L1716 374L1716 372L1716 361L1716 360L1716 358L1716 356L1716 355L1716 353L1716 352L1716 350L1716 349L1716 347L1716 339L1716 335L1716 333L1716 329L1716 327L1716 326L1715.92 324L1715.58 322L1714.97 320L1714.17 318L1713.14 316L1712.53 315L1710.92 313.083L1709 311.417L1708 310.694L1706 309.417L1704 308.472L1703 308.167L1701 307.639L1700 307.389L1698 307.083L1696 307L1695 307L1694 307L1692 307L1691 307L1690 307L1686 307L1682 307L1678 307L1677 307L1676 307L1675 307L1671 307L1670 307L1668 307L1666 307L1662 307L1658 307L1657 307L1656 307L1654 307L1650 307L1646 307L1645 307L1643 307L1642 307L1640 307L1638 307L1635 307L1634 307L1630 307L1629 307L1628 307L1626 307L1625 307L1621 307L1613 307L1609 307L1545 307L1543 307L1539 307L1538 307L1536 307L1534 307L1532 307L1531 307L1530 307L1526 307L1525 307L1521 307L1520 307L1519 307L1517 307L1513 307L1512 307L1510 307L1508 307L1504 307L1500 307L1499 307L1495 307L1491 307L1490 307L1489 307L1487 307L1479 307L1478 307L1474 307L1473 307L1465 307L1461 307L1460 307L1452 307L1448 307L1444 307L1443 307L1442 307L1439 307L1436 307L1435 307L1433 307L1430 307L1429 307L1427 307L1426 307L1394 307L1378 307L1377 307L1373 307L1370 307L1367 307L1365 307L1363 307L1362 307L1354 307L1352 307L1344 307L1340 307L1338 307L1336 307L1335 307L1334 307L1333 307L1329 307L1321 307L1319 307L1315 307L1311 307L1310 307L1309 307L1308 307L1304 307L1302 307L1294 307L1293 307L1289 307L1288 307L1280 307L1279 307L1277 307L1275 307L1267 307L1263 307L1262 307L1260 307L1258 307L1257 307L1255 307L1250 307L1249 307L1248 307L1247 307L1246 307L1245 307L1240 307L1236 307L1235 307L1234 307L1232 307L1231 307L1229 307L1221 307L1217 307L1215 307L1210 307L1206 307L1205 307L1201 307L1200 307L1198 307L1197 307L1195 307L1194 307L1192 307L1191 307L1187 307L1186 307L1182 307L1178 307L1174 307L1173 307L1172 307L1170 307L1168 307L1164 307L1163 307L1159 307L1158 307L1156 307L1155 307L1151 307L1149 307L1148 307L1145 307L1141 307L1140 307L1139 307L1135 307L1134 307L1133 307L1132 307L1126 307L1125 307L1124 307L1123 307L1122 307L1121 307L1113 307L1112 307L1110 307L1102 307L1101 307L1099 307L1097 307L1096 307L1095 307L1094 307L1092 307L1090 307L1089 307L1081 307L1080 307L1064 307L1062 307L1060 307L1059 307L1058 307L1056 307L1051 307L1050 307L1045 307L1044 307L1043 307L1042 307L1038 307L1037 307L1033 307L1027 307L1026 307L1025 307L1022 307L1020 307L1018 307L1014 307L1013 307L1007 307L1006 307L1005 307L1000 307L997 307L993 307L985 307L982 307L976 307L960 307L955 307L947 307L946 307L942 307L941 307L940 307L932 307L928 307L926 307L923 307L918 307L917 307L913 307L909 307L904 307L901 307L898 307L894 307L888 307L884 307L883 307L879 307L874 307L871 307L865 307L861 307L857 307L853 307L851 307L847 307L846 307L830 307L827 307L822 307L821 307L811 307L810 307L808 307L807 307L803 307L793 307L792 307L788 307L780 307L772 307L771 307L770 307L768 307L764 307L748 307L744 307L743 307L738 307L730 307L729 307L719 307L718 307L717 307L712 307L710 307L708 307L705 307L699 307L698 307L697 307L694 307L688 307L687 307L671 307L667 307L663 307L661 307L660 307L656 307L648 307L647 307L643 307L638 307L636 307L628 307L625 307L605 307L604 307L603 307L579 307L578 307L577 307L548 307L547 307L532 307L528 307L527 307L518 307L514 307L512 307L509 307L507 307L491 307L488 307L485 307L398 307L351 307L336 307L333 307L332 307L330 307L328 307.083L326 307.389z"/>
<path style="fill:#3c3c3c; stroke:none;" d="M1700 307L1701 308L1700 307z"/>
<path style="fill:#c2c2c2; stroke:none;" d="M321 308L322 309L321 308M1704 308L1705 309L1704 308z"/>
<path style="fill:#2f2f2f; stroke:none;" d="M318 310L319 311L318 310z"/>
<path style="fill:#2d2d2d; stroke:none;" d="M1707 310L1708 311L1707 310z"/>
<path style="fill:#888888; stroke:none;" d="M315 312L316 313L315 312z"/>
<path style="fill:#8a8a8a; stroke:none;" d="M1710 312L1711 313L1710 312z"/>
<path style="fill:#4c4c4c; stroke:none;" d="M326 317L327 318L326 317z"/>
<path style="fill:#b1b1b1; stroke:none;" d="M327 317L328 318L327 317z"/>
<path style="fill:#ffffff; stroke:none;" d="M328 317.417L326 318.111L325 318.639L324.028 319.306L322.306 321.028L321.639 322L321.111 323L320.417 325L320.083 327L320 329L320 330L320 333L320 379L320 395L320 414L320 415L320 425L320 454L320 456L320 484L320 551L320 591L320 594L320 595L320.083 597L320.417 599L320.722 600L321.639 602L323.111 603.889L324.028 604.694L325 605.361L327 606.278L329 606.778L330 606.917L331 606.972L333 607L334 607L337 607L356 607L420 607L636 607L638 607L642 607L643 607L647 607L653 607L666 607L671 607L678 607L683 607L691 607L692 607L697 607L698 607L700 607L708 607L710 607L713 607L720 607L730 607L733 607L737 607L739 607L743 607L744 607L746 607L749 607L753 607L756 607L764 607L765 607L768 607L770 607L774 607L779 607L787 607L792 607L798 607L799 607L803 607L804 607L806 607L812 607L813 607L817 607L818 607L823 607L825 607L829 607L833 607L838 607L839 607L841 607L842 607L844 607L848 607L853 607L854 607L856 607L872 607L876 607L877 607L885 607L890 607L891 607L892 607L896 607L900 607L906 607L910 607L916 607L918 607L922 607L926 607L930 607L932 607L936 607L940 607L945 607L946 607L950 607L951 607L953 607L954 607L960 607L962 607L965 607L968 607L972 607L980 607L996 607L1001 607L1002 607L1005 607L1010 607L1011 607L1013 607L1021 607L1025 607L1030 607L1031 607L1035 607L1040 607L1041 607L1042 607L1044 607L1048 607L1056 607L1057 607L1065 607L1066 607L1067 607L1075 607L1091 607L1092 607L1096 607L1097 607L1101 607L1105 607L1106 607L1107 607L1139 607L1141 607L1142 607L1145 607L1146 607L1147 607L1148 607L1149 607L1153 607L1155 607L1157 607L1158 607L1159 607L1160 607L1162 607L1165 607L1169 607L1170 607L1172 607L1174 607L1179 607L1183 607L1191 607L1199 607L1215 607L1220 607L1223 607L1225 607L1228 607L1232 607L1240 607L1241 607L1243 607L1244 607L1245 607L1249 607L1250 607L1255 607L1256 607L1257 607L1265 607L1266 607L1269 607L1271 607L1275 607L1276 607L1277 607L1281 607L1282 607L1283 607L1284 607L1292 607L1293 607L1294 607L1296 607L1300 607L1301 607L1302 607L1303 607L1305 607L1307 607L1311 607L1312 607L1314 607L1315 607L1317 607L1325 607L1327 607L1329 607L1330 607L1331 607L1333 607L1335 607L1337 607L1339 607L1340 607L1341 607L1342 607L1346 607L1362 607L1363 607L1365 607L1367 607L1370 607L1373 607L1381 607L1383 607L1384 607L1385 607L1390 607L1394 607L1398 607L1406 607L1410 607L1418 607L1419 607L1427 607L1431 607L1432 607L1433 607L1434 607L1438 607L1439 607L1443 607L1447 607L1448 607L1450 607L1451 607L1455 607L1456 607L1458 607L1460 607L1463 607L1467 607L1468 607L1472 607L1473 607L1481 607L1483 607L1485 607L1486 607L1487 607L1491 607L1492 607L1496 607L1500 607L1501 607L1503 607L1504 607L1506 607L1507 607L1509 607L1510 607L1511 607L1514 607L1518 607L1519 607L1520 607L1521 607L1529 607L1545 607L1546 607L1548 607L1556 607L1557 607L1559 607L1561 607L1565 607L1567 607L1571 607L1572 607L1573 607L1577 607L1579 607L1581 607L1582 607L1586 607L1594 607L1595 607L1597 607L1598 607L1600 607L1602 607L1603 607L1607 607L1610 607L1614 607L1615 607L1617 607L1618 607L1620 607L1624 607L1625 607L1627 607L1628 607L1632 607L1640 607L1643 607L1647 607L1648 607L1649 607L1653 607L1654 607L1658 607L1663 607L1665 607L1668 607L1672 607L1673 607L1674 607L1675 607L1691 607L1693 607L1694 607L1696 606.917L1698 606.583L1699 606.278L1701 605.361L1702.89 603.889L1703.69 602.972L1704.89 601L1705.58 599L1705.92 597L1706 595L1706 593L1706 590L1706 589L1706 550L1706 549L1706 546L1706 545L1706 537L1706 524L1706 500L1706 491L1706 453L1706 448L1706 447L1706 443L1706 438L1706 432L1706 421L1706 417L1706 415L1706 412L1706 411L1706 407L1706 402L1706 400L1706 395L1706 394L1706 391L1706 385L1706 380L1706 375L1706 371L1706 370L1706 354L1706 352L1706 334L1706 331L1706 330L1706 329L1705.92 327L1705.58 325L1704.89 323L1704.36 322L1703.69 321.028L1701.97 319.306L1701 318.639L1700 318.111L1698 317.417L1697 317.222L1696 317.083L1694 317L1693 317L1691 317L1689 317L1688 317L1684 317L1679 317L1671 317L1669 317L1668 317L1664 317L1663 317L1659 317L1657 317L1653 317L1652 317L1644 317L1643 317L1642 317L1640 317L1638 317L1634 317L1630 317L1626 317L1625 317L1624 317L1620 317L1616 317L1615 317L1614 317L1613 317L1611 317L1607 317L1603 317L1602 317L1594 317L1586 317L1582 317L1580 317L1579 317L1577 317L1576 317L1575 317L1571 317L1570 317L1566 317L1565 317L1564 317L1563 317L1562 317L1558 317L1554 317L1553 317L1552 317L1551 317L1550 317L1546 317L1545 317L1544 317L1540 317L1536 317L1535 317L1534 317L1533 317L1529 317L1521 317L1513 317L1512 317L1504 317L1502 317L1501 317L1499 317L1498 317L1494 317L1490 317L1489 317L1481 317L1478 317L1474 317L1473 317L1472 317L1470 317L1468 317L1466 317L1465 317L1464 317L1463 317L1431 317L1429 317L1428 317L1426 317L1424 317L1421 317L1417 317L1413 317L1407 317L1403 317L1402 317L1398 317L1397 317L1396 317L1395 317L1393 317L1392 317L1390 317L1386 317L1380 317L1379 317L1376 317L1373 317L1365 317L1361 317L1360 317L1352 317L1320 317L1314 317L1298 317L1296 317L1295 317L1291 317L1287 317L1283 317L1282 317L1274 317L1273 317L1272 317L1270 317L1266 317L1265 317L1263 317L1255 317L1253 317L1251 317L1247 317L1246 317L1245 317L1240 317L1236 317L1235 317L1234 317L1233 317L1229 317L1228 317L1220 317L1219 317L1217 317L1214 317L1206 317L1204 317L1203 317L1202 317L1198 317L1197 317L1196 317L1192 317L1191 317L1183 317L1179 317L1175 317L1172 317L1170 317L1169 317L1153 317L1152 317L1150 317L1146 317L1144 317L1136 317L1131 317L1129 317L1127 317L1126 317L1125 317L1124 317L1121 317L1119 317L1117 317L1116 317L1114 317L1113 317L1109 317L1108 317L1100 317L1099 317L1098 317L1097 317L1093 317L1090 317L1087 317L1086 317L1070 317L1069 317L1068 317L1066 317L1064 317L1063 317L1047 317L1046 317L1042 317L1040 317L1038 317L1037 317L1036 317L1032 317L1028 317L1026 317L1025 317L1024 317L1021 317L1019 317L1017 317L1015 317L1014 317L1012 317L1011 317L1005 317L1000 317L997 317L993 317L985 317L977 317L973 317L967 317L966 317L958 317L955 317L951 317L935 317L933 317L932 317L928 317L926 317L918 317L915 317L913 317L907 317L906 317L905 317L901 317L895 317L887 317L886 317L881 317L873 317L871 317L868 317L864 317L862 317L861 317L829 317L824 317L822 317L814 317L810 317L809 317L801 317L791 317L790 317L786 317L780 317L764 317L763 317L762 317L753 317L752 317L736 317L735 317L727 317L726 317L722 317L714 317L709 317L701 317L699 317L698 317L694 317L686 317L676 317L668 317L658 317L654 317L653 317L645 317L637 317L633 317L632 317L627 317L626 317L620 317L615 317L609 317L601 317L593 317L585 317L577 317L576 317L567 317L566 317L556 317L552 317L544 317L539 317L536 317L532 317L464 317L463 317L451 317L371 317L370 317L369 317L343 317L337 317L335 317L334 317L332 317L330 317.083L329 317.222L328 317.417z"/>
<path style="fill:#b0b0b0; stroke:none;" d="M1698 317L1699 318L1698 317z"/>
<path style="fill:#4d4d4d; stroke:none;" d="M1699 317L1700 318L1699 317z"/>
<path style="fill:#c2c2c2; stroke:none;" d="M311 318L312 319L311 318z"/>
<path style="fill:#464646; stroke:none;" d="M324 318L325 319L324 318z"/>
<path style="fill:#4a4a4a; stroke:none;" d="M1701 318L1702 319L1701 318z"/>
<path style="fill:#c1c1c1; stroke:none;" d="M1714 318L1715 319L1714 318z"/>
<path style="fill:#8e8e8e; stroke:none;" d="M323 319L324 320L323 319M1702 319L1703 320L1702 319z"/>
<path style="fill:#8f8f8f; stroke:none;" d="M322 320L323 321L322 320z"/>
<path style="fill:#8d8d8d; stroke:none;" d="M1703 320L1704 321L1703 320z"/>
<path style="fill:#4b4b4b; stroke:none;" d="M321 321L322 322L321 321z"/>
<path style="fill:#4d4d4d; stroke:none;" d="M1704 321L1705 322L1704 321z"/>
<path style="fill:#535353; stroke:none;" d="M320 323L321 324L320 323z"/>
<path style="fill:#555555; stroke:none;" d="M1705 323L1706 324L1705 323z"/>
<path style="fill:#b7b7b7; stroke:none;" d="M320 324L321 325L320 324M1705 324L1706 325L1705 324z"/>
<path style="fill:#c1c1c1; stroke:none;" d="M415 354L416 355L415 354z"/>
<path style="fill:#646464; stroke:none;" d="M416 354L417 355L416 354z"/>
<path style="fill:#333333; stroke:none;" d="M413 356L412.972 358.056L412.917 359.056L412.611 361L412.389 362L412.083 364L412 366L412 368L412 371L412 382L412 385L412 389L412 414L412 415L412 418L412 422L412 427L412 434L412 440L412 441L412 442L412 451L412 470L412 514L412 553L412 555L412 556L411.972 558L411.917 559L411.639 561L411.472 562L411.556 564L412.278 565.972L412.861 566.889L413.472 567.694L414.25 568.361L416.028 569.194L418 569.389L420 569.194L421 569.083L422 569.028L423 569L425 569L427 569L430 569L440 569L445 569L447 569L449 569.083L449.944 569.222L450.944 569.417L453 570L453.806 568.5L453.972 567.944L454.583 566L454.917 564L454.972 563L454.917 561L454.611 559.056L454.389 558.056L454.25 557.5L454 556L430 556L430 406L430 405L430 395L430 387L430 386L430 368L442 368L445 368L446 368L447 368L449 368.083L449.944 368.222L450.944 368.417L453 369L453.806 367.5L453.972 366.944L454.583 365L454.917 363L454.972 362L454.917 360L454.611 358.056L454.389 357.056L454.25 356.5L454 355L452.5 355L427 355L425 355L424 355L423 355L421 354.917L420 354.806L418 354.611L416.056 354.75L414.5 355.194L413 356z"/>
<path style="fill:#1a1a1a; stroke:none;" d="M418 354L418.778 354.722L419.306 354.75L420.111 354.944L421.028 354.972L423 355L425 355L429 355L452 355L451.222 354.278L450.694 354.25L449.889 354.056L448.972 354.028L447 354L445 354L441 354L418 354z"/>
<path style="fill:#545454; stroke:none;" d="M452 354L453 355L452 354z"/>
<path style="fill:#636363; stroke:none;" d="M990 354L991 355L990 354z"/>
<path style="fill:#1a1a1a; stroke:none;" d="M991 354L991.778 354.722L992.306 354.75L993.111 354.944L994.028 354.972L996 355L998 355L1002 355L1005 355L1013 355L1017 355L1025 355L1024.22 354.278L1023.69 354.25L1022.89 354.056L1021.97 354.028L1020 354L1018 354L1014 354L991 354z"/>
<path style="fill:#333333; stroke:none;" d="M990 355L989 356L989 367L990 368L994 368L999 368L1003 368L1006 368L1009.94 368L1013 368L1014 369L1014 376L1014 390L1014 393L1014 401L1014 406L1014 411L1014 413L1014 418L1014 435L1014 437L1014 439L1014 440L1014 446L1014 451L1014 459L1014 506L1014 513L1014 518L1014 526L1014 531L1014 542L1014 547L1014 555L1013 556L1009.94 556L1004 556L999 556L998 556L993.056 556L990 556L989 557L989 568L990 569L992.056 569L997 569L1002 569L1010 569L1012 569L1017 569L1019 569L1020 569L1022 569.083L1024 569.361L1025 569.528L1026 569.528L1027 569.417L1028.92 568.5L1030.53 566.972L1032 565L1031.42 562.944L1031.22 561.944L1031.08 561L1031 559L1031 558L1031 556L1031 548L1031 520L1031 476L1031 460L1031 447L1031 428L1031 427L1031 420L1031 416L1031 406L1031 383L1031 371L1031 367L1031 365L1031.08 363L1031.22 362.056L1031.42 361.056L1032 359L1030.53 357.056L1029.72 356.25L1028.92 355.639L1027 354.806L1025 354.611L1023 354.806L1022 354.917L1021 354.972L1020 355L1018 355L1017 355L1015 355L1009 355L1008 355L1007 355L1006 355L1002 355L994 355L990 355z"/>
<path style="fill:#5e5e5e; stroke:none;" d="M1026 354L1027 355L1026 354z"/>
<path style="fill:#a4a4a4; stroke:none;" d="M1027 354L1028 355L1027 354z"/>
<path style="fill:#686868; stroke:none;" d="M989 355L990 356L989 355z"/>
<path style="fill:#d2d2d2; stroke:none;" d="M1029 355L1030 356L1029 355z"/>
<path style="fill:#686868; stroke:none;" d="M412 357L413 358L412 357z"/>
<path style="fill:#8e8e8e; stroke:none;" d="M454 357L455 358L454 357M988.333 357.667L988.333 358L988.667 358.333L988.667 358L988.333 357.667z"/>
<path style="fill:#292929; stroke:none;" d="M412 358L411.417 360.056L411.222 361.056L411.083 362L411 364L411 366L411 370L411 374L411 382L411 383L411 387L411 394L411 402L411 405L411 406L411 414L411 424L411 562L411.722 561.222L411.75 560.694L411.944 559.889L411.972 558.972L412 558L412 556L412 554L412 549L412 518L412 405L412 371L412 369L412 368L412.028 366L412.083 365L412.389 363L412.611 362L412.861 360.111L412.722 359.306L412.722 358.778L412 358z"/>
<path style="fill:#acacac; stroke:none;" d="M1031 358L1032 359L1031 358z"/>
<path style="fill:#8d8d8d; stroke:none;" d="M411 359L412 360L411 359z"/>
<path style="fill:#6d6d6d; stroke:none;" d="M988 359L988 365L988.722 364.222L988.75 363.694L988.944 362.889L988.944 361.111L988.75 360.306L988.722 359.778L988 359z"/>
<path style="fill:#1e1e1e; stroke:none;" d="M1031 360L1031 370L1031 375L1031 383L1031 388L1031 395L1031 400L1031 407L1031 408L1031 411L1031 418L1031 423L1031 430L1031 431L1031 441L1031 443L1031 448L1031 453L1031 461L1031 462L1031 564L1031.72 563.222L1031.75 562.694L1031.94 561.889L1031.97 560.972L1032 560L1032 558L1032 556L1032 551L1032 520L1032 407L1032 402L1032 394L1032 392L1032 384L1032 374L1032 368L1032 366L1032 364L1031.97 363.028L1031.94 362.111L1031.75 361.306L1031.72 360.778L1031 360z"/>
<path style="fill:#e9e9e9; stroke:none;" d="M1032 362L1032 368L1032 373L1032 377L1032 381L1032 386L1032 396L1032 407L1032 436L1032 437L1032 438L1032 562L1032.72 561.222L1032.75 560.694L1032.94 559.889L1032.97 558.972L1033 558L1033 556L1033 554L1033 549L1033 519L1033 415L1033 413L1033 408L1033 376L1033 374L1033 370L1033 368L1033 366L1032.97 365.028L1032.94 364.111L1032.75 363.306L1032.72 362.778L1032 362z"/>
<path style="fill:#7f7f7f; stroke:none;" d="M454 365L455 366L454 365z"/>
<path style="fill:#c2c2c2; stroke:none;" d="M988 365L989 366L988 365z"/>
<path style="fill:#c4c4c4; stroke:none;" d="M454 366L455 367L454 366z"/>
<path style="fill:#b0b0b0; stroke:none;" d="M728 366L729 367L728 366z"/>
<path style="fill:#4d4d4d; stroke:none;" d="M729 366L729.722 366.722L730.25 366.75L732 367L731.278 366.278L730.75 366.25L729 366z"/>
<path style="fill:#333333; stroke:none;" d="M727 367L727 368.5L727.083 370.056L727.222 371L727.417 372L728.083 374L729.056 376L729.639 377L730.194 378L730.806 379L732 381L732.611 382L733.75 384L734.25 385L735.389 387L736.611 389L737.806 391L738.389 392L739.611 394L740.194 395L741.389 397L742.611 399L743.75 401L744.25 402L745.389 404L746.611 406L747.806 408L748.389 409L749.611 411L750.75 413L751.25 414L752.389 416L753.611 418L754.806 420L755.389 421L756.611 423L757.75 425L758.25 426L759.389 428L760.611 430L761.806 432L762.389 433L763.611 435L764.75 437L765.25 438L766.389 440L767.611 442L768.778 443.889L769.417 444.694L769.778 445.222L771 446L770.472 447.5L770.111 448.056L769.583 449.056L768.389 451L767.25 453L766.75 454L765.611 456L764.389 458L763.194 460L762.611 461L761.389 463L760.806 464L759.611 466L758.389 468L757.806 469L756.611 471L755.389 473L754.25 475L753.75 476L752.611 478L751.389 480L750.194 482L749.611 483L748.389 485L747.194 487L746.611 488L745.389 490L744.194 492L743.611 493L742.389 495L741.806 496L740.611 498L739.389 500L738.25 502L737.75 503L736.611 505L735.389 507L734.194 509L733.611 510L732.389 512L731.806 513L730.611 515L729.389 517L728.806 518L727.611 520L727 521L725.917 523L725.5 524L725.25 525L725.083 526L725 527.944L725 530L726.5 530.083L727.056 530.222L728.056 530.389L729 530.583L731 530.694L733 530.389L735 530.111L736 530.111L738 530.361L739 530.528L741 530.528L743 530.194L744 529.972L745.917 529.278L747.528 527.889L748.75 526L749.25 525L750.389 523L751.611 521L752.167 520L752.75 519L753.778 517L754.25 516L754.833 515L755.389 514L756.611 512L757.75 510L758.25 509L759.389 507L760.611 505L761.167 504L761.75 503L762.778 501L763.25 500L764.389 498L765.611 496L766.75 494L767.25 493L768.389 491L769.611 489L770.75 487L771.222 486L772.25 484L772.833 483L773.389 482L774.611 480L775.75 478L776.25 477L777.389 475L778.611 473L779.167 472L779.75 471L780.778 469L781.25 468L781.833 467L782.389 466L783.611 464.056L783.944 463.5L785 462L785.5 463.5L785.833 464.056L786.25 465.056L787.25 467L788.389 469L789.611 471L790.75 473L791.222 474L791.778 475L792.25 476L792.833 477L793.389 478L794.611 480L795.167 481L795.75 482L796.778 484L797.25 485L798.389 487L799.611 489L800.75 491L801.25 492L802.389 494L803.611 496L804.75 498L805.778 500L806.25 501L806.833 502L807.389 503L808.611 505L809.75 507L810.222 508L810.778 509L811.833 511L812.389 512L813.611 514L814.167 515L814.75 516L815.222 517L816.25 519L816.833 520L817.389 521L818.611 523L819.75 525L820.25 526L821.472 527.889L823.083 529.278L825 529.972L826 530.194L828 530.528L830 530.528L831 530.361L833 530.111L834 530.111L836 530.389L838 530.694L840 530.583L840.944 530.389L841.944 530.222L842.5 530.083L844 530L844 527.944L843.972 526L843.917 525L843.528 523L843.139 522L842.167 520L841.611 519L840.389 517L839.194 515L838.611 514L837.389 512L836.25 510L835.75 509L834.611 507L833.389 505L832.806 504L831.611 502L830.389 500L829.25 498L828.75 497L827.611 495L826.389 493L825.806 492L824.611 490L823.389 488L822.25 486L821.75 485L820.611 483L819.389 481L818.25 479L817.75 478L816.611 476L815.389 474L814.194 472L813.611 471L812.389 469L811.806 468L810.611 466L809.389 464L808.25 462L807.75 461L806.611 459L805.389 457L804.25 455L803.75 454L802.611 452L801.389 450L800.861 449.056L800.25 448.056L800 447.5L799 446L800.222 445.222L800.583 444.694L801.194 443.889L802.25 442L803.389 440L804.611 438L805.194 437L806.389 435L807.611 433L808.75 431L809.25 430L810.389 428L811.611 426L812.806 424L813.389 423L814.611 421L815.194 420L816.389 418L817.611 416L818.75 414L819.25 413L820.389 411L821.611 409L822.806 407L823.389 406L824.611 404L825.75 402L826.25 401L827.389 399L828.611 397L829.806 395L830.389 394L831.611 392L832.806 390L833.389 389L834.611 387L835.75 385L836.25 384L837.389 382L838.611 380L839.194 379L840.389 377L841.583 375L842.083 374L842.5 373L842.917 371.056L843 369.5L843 368L842 367L840.5 366.917L839.944 366.778L838 366.472L837 366.444L836 366.472L835 366.639L833 366.889L832 366.889L830 366.639L829 366.472L827 366.472L825 366.889L824 367.25L823.028 367.694L822.083 368.333L820.472 370.028L819.25 372L818.75 373L817.611 375L816.389 377L815.25 379L814.75 380L813.611 382L812.389 384L811.25 386L810.778 387L809.75 389L808.611 391L807.389 393L806.25 395L805.75 396L804.611 398L803.389 400L802.25 402L801.75 403L800.611 405L799.389 407L798.25 409L797.75 410L796.611 412L795.389 414L794.25 416L793.75 417L792.611 419L791.389 421L790.25 423L789.75 424L788.611 426L787.417 427.944L786.889 428.944L786.528 429.5L786 431L785 429.5L784.75 428.944L784.139 427.944L783.611 427L782.389 425L781.25 423L780.75 422L779.611 420L778.389 418L777.806 417L776.611 415L775.389 413L774.25 411L773.75 410L772.611 408L771.389 406L770.25 404L769.75 403L768.611 401L767.389 399L766.25 397L765.75 396L764.611 394L763.389 392L762.25 390L761.75 389L760.611 387L759.389 385L758.25 383L757.75 382L756.611 380L755.389 378L754.25 376L753.75 375L753.167 374L752.611 373L751.306 371L749.778 369.111L747.972 367.694L747 367.25L746 366.889L744 366.472L742 366.472L741 366.639L739 366.917L738 366.972L736 366.917L734 366.694L733 366.611L732 366.611L731 366.694L730.056 366.806L728.5 366.972L727 367z"/>
<path style="fill:#1a1a1a; stroke:none;" d="M733 366L733.778 366.722L734.306 366.75L735.111 366.944L736.028 366.972L738 367L738.944 367L739.944 367L742 367L741.222 366.278L740.694 366.25L739.889 366.056L738.972 366.028L737 366L736.056 366L733 366z"/>
<path style="fill:#7a7a7a; stroke:none;" d="M744.667 366.333L745 366.667L745.333 366.667L745 366.333L744.667 366.333z"/>
<path style="fill:#aeaeae; stroke:none;" d="M746 366L747 367L746 366z"/>
<path style="fill:#a3a3a3; stroke:none;" d="M824 366L825 367L824 366z"/>
<path style="fill:#4b4b4b; stroke:none;" d="M825.667 366.333L826 366.667L826.333 366.667L826 366.333L825.667 366.333z"/>
<path style="fill:#1b1b1b; stroke:none;" d="M829 366L829.778 366.722L830.306 366.75L831.111 366.944L832.028 366.972L832.944 367L833.944 367L836 367L835.222 366.278L834.694 366.25L833.889 366.056L832.972 366.028L832.056 366L831.056 366L829 366z"/>
<path style="fill:#6f6f6f; stroke:none;" d="M838.667 366.333L839 366.667L839.333 366.667L839 366.333L838.667 366.333z"/>
<path style="fill:#a2a2a2; stroke:none;" d="M840 366L841 367L840 366z"/>
<path style="fill:#7c7c7c; stroke:none;" d="M470 367L471 368L470 367z"/>
<path style="fill:#1a1a1a; stroke:none;" d="M471 367L471.778 367.722L472.306 367.75L473.111 367.944L474.028 367.972L476 368L478 368L481 368L483 368L503 368L505 368L509 368L516 368L519 368L520 368L543 368L545 368L549 368L566 368L586 368L585.222 367.278L584.694 367.25L583.889 367.056L582.972 367.028L581 367L579 367L576 367L566 367L561 367L554 367L550 367L546 367L471 367z"/>
<path style="fill:#333333; stroke:none;" d="M586 367L584.5 367.722L583.944 367.75L582.944 367.944L582 367.972L581 368L579 368L577 368L573 368L550 368L537 368L536 368L534 368L532 368L527 368L514 368L510 368L470 368L469.194 369.5L468.75 371.056L468.611 373L468.778 375L468.833 376L468.639 378L468.472 379L468.528 380.944L468.889 381.944L470 384L518 384L519 385L519 394L519 413L519 442L519 484L519 529L520 530L521.5 530.028L522.056 530.083L523.056 530.194L525 530.389L526 530.389L528 530.278L529 530.306L531 530.583L533 530.694L534.944 530.389L535.944 530.222L536.5 530.083L538 530L539 529L539 524L539 518L539 384L541.056 384L543 384L568 384L569 384L573 384L578 384L580 384L581 384L583 384.083L583.944 384.222L584.944 384.417L587 385L588.167 383.5L588.944 381.944L589.583 380L589.917 378L589.972 377L589.917 375L589.778 374L589.361 372L589.111 371L588.361 369.111L587.389 367.778L586 367z"/>
<path style="fill:#a4a4a4; stroke:none;" d="M587 367L588 368L587 367z"/>
<path style="fill:#b7b7b7; stroke:none;" d="M618 367L619 368L618 367z"/>
<path style="fill:#646464; stroke:none;" d="M619 367L620 368L619 367z"/>
<path style="fill:#333333; stroke:none;" d="M703 529L703.333 527.5L703.389 525.944L703.306 525L703.083 523L703 521L703.083 519L703.306 517L703.389 516.056L703.333 514.5L703 513L700.944 513L696 513L688 513L687 513L686 513L677 513L676 513L675 513L671 513L669 513L668 513L664 513L656 513L652 513L646 513L635 513L634 512L634 454L635 453L638.056 453L639 453L643 453L646 453L651 453L654 453L658 453L659 453L670 453L675 453L683 453L685 453L686 453L693 453L693.333 451.5L693.389 449.944L693.306 449L693.083 447L693 445L693.083 443L693.306 441L693.389 440.056L693.333 438.5L693 437L677 437L669 437L664 437L661 437L657 437L656 437L652 437L646 437L635 437L634 436L634 434.5L634 415L634 413L634 412L634 411L634 385L635 384L637.056 384L638.056 384L644 384L676 384L677 384L681 384L689 384L693 384L695 384L697 384.083L697.944 384.222L698.944 384.417L701 385L702 383L703 382L702.417 379.944L702.222 378.944L702.083 378L702 376L702 374L702 368L700.5 368L690 368L667 368L658 368L657 368L656 368L643 368L642 368L640 368L630 368L627 368L625 367.972L624 367.917L623 367.806L621 367.611L620 367.639L618.028 368.139L617.111 368.639L615.722 370.111L615.111 372L615 374L615 375L615 376L615 378L615 390L615 395L615 398L615 404L615 418L615 450L615 457L615 471L615 472L615 496L615 499L615 519L615 522L615 523L615.111 525L615.333 525.972L616.333 527.694L618.028 528.861L619 529.194L620 529.361L621 529.389L622 529.306L624 529.083L626 529L627 529L628 529L630 529L634 529L639 529L703 529z"/>
<path style="fill:#1a1a1a; stroke:none;" d="M621 367L621.778 367.722L622.306 367.75L623.111 367.944L624.028 367.972L626 368L627 368L629 368L644 368L648 368L650 368L658 368L659 368L660 368L670 368L675 368L700 368L699.222 367.278L698.694 367.25L697.889 367.056L696.972 367.028L695 367L694 367L692 367L690 367L685 367L677 367L669 367L665 367L652 367L651 367L650 367L648 367L647 367L645 367L637 367L626 367L625 367L621 367z"/>
<path style="fill:#5e5e5e; stroke:none;" d="M700 367L701 368L700 367z"/>
<path style="fill:#656565; stroke:none;" d="M748 367L749 368L748 367z"/>
<path style="fill:#787878; stroke:none;" d="M822 367L823 368L822 367z"/>
<path style="fill:#797979; stroke:none;" d="M842 367L843 368L842 367z"/>
<path style="fill:#7c7c7c; stroke:none;" d="M856 367L857 368L856 367z"/>
<path style="fill:#1a1a1a; stroke:none;" d="M857 367L857.778 367.722L858.306 367.75L859.111 367.944L860.028 367.972L862 368L864 368L867 368L871 368L876 368L884 368L887 368L889 368L891 368L895 368L896 368L899 368L904 368L906 368L910 368L916 368L929 368L933 368L934 368L938 368L942 368L943 368L944 368L945 368L949 368L955 368L959 368L961 368L965 368L968 368L972 368L971.222 367.278L970.694 367.25L969.889 367.056L968.972 367.028L967 367L965 367L962 367L960 367L955 367L947 367L946 367L942 367L941 367L940 367L936 367L932 367L931 367L929 367L913 367L909 367L907 367L906 367L898 367L896 367L893 367L890 367L886 367L882 367L881 367L872 367L871 367L861 367L857 367z"/>
<path style="fill:#333333; stroke:none;" d="M972 367L970.5 367.722L969.944 367.75L968.944 367.944L968 367.972L967 368L965 368L963 368L959 368L956 368L948 368L944 368L943 368L937 368L936 368L935 368L927 368L923 368L918 368L915 368L913 368L905 368L901 368L893 368L892 368L891 368L887 368L882 368L881 368L878 368L874 368L866 368L862 368L856 368L855.194 369.5L854.75 371.056L854.611 373L854.778 375L854.833 376L854.639 378L854.472 379L854.528 380.944L854.889 381.944L856 384L861 384L865 384L866 384L868 384L876 384L879 384L883 384L884 384L885 384L892 384L894 384L895 384L899 384L904 384L905 385L905 388.056L905 394L905 395L905 398L905 402L905 409L905 414L905 422L905 424L905 426L905 433L905 438L905 446L905 447L905 450L905 452L905 457L905 459L905 462L905 464L905 471L905 472L905 473L905 483L905 487L905 488L905 492L905 502L905 529L906 530L907.5 530.028L908.056 530.083L909.056 530.194L911 530.389L912 530.389L914 530.278L915 530.306L917 530.583L919 530.694L920.944 530.389L921.944 530.222L922.5 530.083L924 530L925 529L925 525.944L925 514L925 506L925 498L925 495L925 475L925 474L925 462L925 449L925 385L926 384L932 384L948 384L953 384L955 384L958 384L964 384L966 384L967 384L969 384.083L969.944 384.222L970.944 384.417L973 385L974.167 383.5L974.944 381.944L975.583 380L975.917 378L975.972 377L975.917 375L975.778 374L975.361 372L975.111 371L974.361 369.111L973.389 367.778L972 367z"/>
<path style="fill:#a5a5a5; stroke:none;" d="M973 367L974 368L973 367z"/>
<path style="fill:#7c7c7c; stroke:none;" d="M989 367L990 368L989 367z"/>
<path style="fill:#1b1b1b; stroke:none;" d="M430 368L430.778 368.722L431.306 368.75L432.111 368.944L433.028 368.972L435 369L436 369L438 369L452 369L451.222 368.278L450.694 368.25L449.889 368.056L448.972 368.028L447 368L446 368L444 368L430 368z"/>
<path style="fill:#6a6a6a; stroke:none;" d="M469 368L470 369L469 368z"/>
<path style="fill:#ababab; stroke:none;" d="M588 368L589 369L588 368z"/>
<path style="fill:#d3d3d3; stroke:none;" d="M616 368L617 369L616 368z"/>
<path style="fill:#585858; stroke:none;" d="M726.333 368.667L726.333 369L726.667 369.333L726.667 369L726.333 368.667z"/>
<path style="fill:#5c5c5c; stroke:none;" d="M749 368L750 369L749 368z"/>
<path style="fill:#8d8d8d; stroke:none;" d="M821 368L822 369L821 368z"/>
<path style="fill:#909090; stroke:none;" d="M843 368L843 371L843.694 370.25L843.694 369.806L843.694 368.75L843 368z"/>
<path style="fill:#6a6a6a; stroke:none;" d="M855 368L856 369L855 368z"/>
<path style="fill:#a9a9a9; stroke:none;" d="M974 368L975 369L974 368z"/>
<path style="fill:#767676; stroke:none;" d="M990 368L991 369L990 368z"/>
<path style="fill:#1b1b1b; stroke:none;" d="M991 368L991.778 368.722L992.306 368.75L993.111 368.944L994.028 368.972L996 369L997 369L999 369L1003 369L1004 369L1008 369L1013 369L1012.22 368.278L1011.69 368.25L1010.89 368.056L1009.97 368.028L1008 368L1007 368L1005 368L1004 368L999 368L991 368z"/>
<path style="fill:#585858; stroke:none;" d="M430 369L430 375L430 380L430 388L430 389L430 391L430 397L430 413L430 414L430 418L430 423L430 427L430 432L430 442L430 448L430 453L430 461L430 464L430 468L430 481L430 555L430.722 554.222L430.75 553.694L430.944 552.889L430.972 551.972L431 550L431 548L431 543L431 515L431 504L431 491L431 463L431 413L431 412L431 400L431 387L431 383L431 382L431 377L431 375L431 373L430.972 372.028L430.944 371.111L430.75 370.306L430.722 369.778L430 369z"/>
<path style="fill:#afafaf; stroke:none;" d="M615 369L616 370L615 369z"/>
<path style="fill:#b1b1b1; stroke:none;" d="M702 369L703 370L702 369z"/>
<path style="fill:#9c9c9c; stroke:none;" d="M750 369L751 370L750 369z"/>
<path style="fill:#999999; stroke:none;" d="M1012 369L1012 376L1012 378L1012 381L1012 385L1012 386L1012 395L1012 411L1012 412L1012 414L1012 417L1012 421L1012 429L1012 437L1012 447L1012 448L1012 458L1012 466L1012 475L1012 489L1012 505L1012 507L1012 555L1012.72 554.222L1012.75 553.694L1012.94 552.889L1012.97 551.972L1013 551L1013 549L1013 547L1013 545L1013 542L1013 541L1013 530L1013 522L1013 518L1013 512L1013 501L1013 484L1013 463L1013 462L1013 460L1013 456L1013 450L1013 439L1013 435L1013 431L1013 425L1013 409L1013 405L1013 401L1013 399L1013 396L1013 392L1013 390L1013 386L1013 384L1013 381L1013 379L1013 376L1013 374L1012.97 372.028L1012.94 371.111L1012.75 370.306L1012.72 369.778L1012 369z"/>
<path style="fill:#262626; stroke:none;" d="M1013 369L1013 375L1013 378L1013 379L1013 398L1013 400L1013 404L1013 410L1013 411L1013 415L1013 417L1013 420L1013 424L1013 428L1013 434L1013 438L1013 440L1013 443L1013 447L1013 453L1013 474L1013 482L1013 486L1013 488L1013 491L1013 499L1013 500L1013 511L1013 555L1013.72 554.222L1013.75 553.694L1013.94 552.889L1013.97 551.972L1014 550L1014 548L1014 543L1014 538L1014 515L1014 492L1014 486L1014 484L1014 467L1014 457L1014 441L1014 436L1014 425L1014 420L1014 412L1014 411L1014 406L1014 401L1014 395L1014 390L1014 382L1014 377L1014 375L1014 373L1013.97 372.028L1013.94 371.111L1013.75 370.306L1013.72 369.778L1013 369z"/>
<path style="fill:#9c9c9c; stroke:none;" d="M468 370L469 371L468 370z"/>
<path style="fill:#cacaca; stroke:none;" d="M589 370L590 371L589 370z"/>
<path style="fill:#5c5c5c; stroke:none;" d="M702 370L703 371L702 370z"/>
<path style="fill:#8f8f8f; stroke:none;" d="M726 370L727 371L726 370z"/>
<path style="fill:#999999; stroke:none;" d="M854 370L855 371L854 370z"/>
<path style="fill:#cbcbcb; stroke:none;" d="M975 370L976 371L975 370z"/>
<path style="fill:#5f5f5f; stroke:none;" d="M468 371L469 372L468 371z"/>
<path style="fill:#6e6e6e; stroke:none;" d="M589.333 371.667L589.333 372L589.667 372.333L589.667 372L589.333 371.667z"/>
<path style="fill:#6f6f6f; stroke:none;" d="M614 371L615 372L614 371z"/>
<path style="fill:#232323; stroke:none;" d="M702 371L702 381L702.722 380.222L702.75 379.694L702.944 378.889L702.972 377.972L703 376L702.972 374.028L702.944 373.111L702.75 372.306L702.722 371.778L702 371z"/>
<path style="fill:#636363; stroke:none;" d="M751 371L752 372L751 371z"/>
<path style="fill:#b2b2b2; stroke:none;" d="M819 371L820 372L819 371z"/>
<path style="fill:#5f5f5f; stroke:none;" d="M854 371L855 372L854 371z"/>
<path style="fill:#6e6e6e; stroke:none;" d="M975.333 371.667L975.333 372.333L975.667 372.333L975.667 372L975.333 371.667z"/>
<path style="fill:#232323; stroke:none;" d="M614 372L614 373.5L614 374.056L614 375.056L614 380L614 383L614 387L614 404L614 525L614.722 524.222L614.75 523.694L614.944 522.889L614.972 521.972L615 520L615 518L615 515L615 492L615 478L615 475L615 472L615 408L615 407L615 396L615 391L615 383L615 379L615 377L614.972 375.028L614.944 374.111L614.75 373.306L614.722 372.778L614 372z"/>
<path style="fill:#595959; stroke:none;" d="M727 372L728 373L727 372z"/>
<path style="fill:#d1d1d1; stroke:none;" d="M752 372L753 373L752 372z"/>
<path style="fill:#1d1d1d; stroke:none;" d="M468 373L468 379L468.722 378.222L468.75 377.694L468.944 376.889L468.944 375.111L468.75 374.306L468.722 373.778L468 373z"/>
<path style="fill:#d0d0d0; stroke:none;" d="M613.333 373.667L613.333 374L613.667 374.333L613.667 374L613.333 373.667z"/>
<path style="fill:#b8b8b8; stroke:none;" d="M703 373L703 379L703.722 378.222L703.75 377.694L703.944 376.889L703.944 375.111L703.75 374.306L703.722 373.778L703 373z"/>
<path style="fill:#8f8f8f; stroke:none;" d="M818 373L819 374L818 373z"/>
<path style="fill:#c7c7c7; stroke:none;" d="M842 373L843 374L842 373z"/>
<path style="fill:#1c1c1c; stroke:none;" d="M854 373L854 379L854.722 378.222L854.75 377.694L854.944 376.889L854.944 375.111L854.75 374.306L854.722 373.778L854 373z"/>
<path style="fill:#adadad; stroke:none;" d="M753 374L754 375L753 374z"/>
<path style="fill:#b8b8b8; stroke:none;" d="M613 375L613 384L613 392L613 402L613 403L613 404L613 413L613 415L613 431L613 435L613 437L613 439L613 440L613 446L613 475L613 522L613.722 521.222L613.75 520.694L613.944 519.889L613.972 518.972L614 517L614 515L614 512L614 490L614 488L614 409L614 386L614 382L614 380L613.972 378.028L613.944 377.111L613.75 376.306L613.722 375.778L613 375z"/>
<path style="fill:#6c6c6c; stroke:none;" d="M817 375L818 376L817 375z"/>
<path style="fill:#7c7c7c; stroke:none;" d="M729 376L730 377L729 376z"/>
<path style="fill:#868686; stroke:none;" d="M754 376L755 377L754 376z"/>
<path style="fill:#767676; stroke:none;" d="M840 376L841 377L840 376z"/>
<path style="fill:#a8a8a8; stroke:none;" d="M730 378L731 379L730 378z"/>
<path style="fill:#626262; stroke:none;" d="M755 378L756 379L755 378z"/>
<path style="fill:#b6b6b6; stroke:none;" d="M815 378L816 379L815 378z"/>
<path style="fill:#a3a3a3; stroke:none;" d="M839 378L840 379L839 378z"/>
<path style="fill:#d0d0d0; stroke:none;" d="M756 379L757 380L756 379z"/>
<path style="fill:#8b8b8b; stroke:none;" d="M589 380L590 381L589 380z"/>
<path style="fill:#d1d1d1; stroke:none;" d="M731 380L732 381L731 380z"/>
<path style="fill:#949494; stroke:none;" d="M814 380L815 381L814 380z"/>
<path style="fill:#d0d0d0; stroke:none;" d="M838 380L839 381L838 380z"/>
<path style="fill:#8b8b8b; stroke:none;" d="M975 380L976 381L975 380z"/>
<path style="fill:#8f8f8f; stroke:none;" d="M468 381L469 382L468 381z"/>
<path style="fill:#c1c1c1; stroke:none;" d="M589 381L590 382L589 381z"/>
<path style="fill:#676767; stroke:none;" d="M732 381L733 382L732 381z"/>
<path style="fill:#ababab; stroke:none;" d="M757 381L758 382L757 381z"/>
<path style="fill:#626262; stroke:none;" d="M837 381L838 382L837 381z"/>
<path style="fill:#8f8f8f; stroke:none;" d="M854 381L855 382L854 381z"/>
<path style="fill:#c1c1c1; stroke:none;" d="M975 381L976 382L975 381z"/>
<path style="fill:#a9a9a9; stroke:none;" d="M702 382L703 383L702 382z"/>
<path style="fill:#707070; stroke:none;" d="M813 382L814 383L813 382z"/>
<path style="fill:#646464; stroke:none;" d="M469 383L470 384L469 383z"/>
<path style="fill:#a4a4a4; stroke:none;" d="M588 383L589 384L588 383z"/>
<path style="fill:#949494; stroke:none;" d="M733 383L734 384L733 383z"/>
<path style="fill:#828282; stroke:none;" d="M758 383L759 384L758 383z"/>
<path style="fill:#929292; stroke:none;" d="M836 383L837 384L836 383z"/>
<path style="fill:#646464; stroke:none;" d="M855 383L856 384L855 383z"/>
<path style="fill:#a4a4a4; stroke:none;" d="M974 383L975 384L974 383z"/>
<path style="fill:#7c7c7c; stroke:none;" d="M470 384L471 385L470 384z"/>
<path style="fill:#1b1b1b; stroke:none;" d="M471 384L471.778 384.722L472.306 384.75L473.111 384.944L474.028 384.972L475 385L477 385L478 385L480 385L485 385L518 385L517.222 384.278L516.694 384.25L515.889 384.056L514.972 384.028L514 384L512 384L511 384L509 384L504 384L503 384L471 384M539 384L539.778 384.722L540.306 384.75L541.111 384.944L542.028 384.972L543 385L545 385L546 385L548 385L553 385L555 385L562 385L582 385L586 385L585.222 384.278L584.694 384.25L583.889 384.056L582.972 384.028L582 384L580 384L579 384L577 384L572 384L571 384L539 384z"/>
<path style="fill:#a5a5a5; stroke:none;" d="M587 384L588 385L587 384z"/>
<path style="fill:#1b1b1b; stroke:none;" d="M635 384L635.778 384.722L636.306 384.75L637.111 384.944L638.028 384.972L639 385L640 385L642 385L654 385L661 385L662 385L670 385L680 385L688 385L690 385L696.944 385L700 385L699.222 384.278L698.694 384.25L697.889 384.056L696.972 384.028L696 384L695 384L693 384L689 384L681 384L675 384L674 384L669 384L667 384L659 384L655 384L653 384L645 384L644 384L635 384z"/>
<path style="fill:#7c7c7c; stroke:none;" d="M856 384L857 385L856 384z"/>
<path style="fill:#1b1b1b; stroke:none;" d="M857 384L857.778 384.722L858.306 384.75L859.111 384.944L860.028 384.972L861 385L863 385L864 385L866 385L867 385L871 385L873 385L874 385L878 385L882 385L883 385L889 385L890 385L894 385L898 385L904 385L903.222 384.278L902.694 384.25L901.889 384.056L900.972 384.028L900 384L898 384L897 384L895 384L890 384L889 384L857 384M926 384L926.778 384.722L927.306 384.75L928.111 384.944L929.028 384.972L930 385L932 385L933 385L935 385L940 385L972 385L971.222 384.278L970.694 384.25L969.889 384.056L968.972 384.028L968 384L966 384L965 384L963 384L958 384L926 384z"/>
<path style="fill:#a5a5a5; stroke:none;" d="M973 384L974 385L973 384z"/>
<path style="fill:#1a1a1a; stroke:none;" d="M518 385L518 394L518 413L518 445L518 446L518 456L518 485L518 528L518.722 527.222L518.75 526.694L518.944 525.889L518.972 524.972L519 523L519 521L519 518L519 497L519 459L519 418L519 395L519 392L519 390L518.972 388.028L518.944 387.111L518.75 386.306L518.722 385.778L518 385z"/>
<path style="fill:#585858; stroke:none;" d="M539 385L539 392L539 456L539 457L539 528L539.722 527.222L539.75 526.694L539.944 525.889L539.972 524.972L540 523L540 521L540 518L540 497L540 493L540 491L540 489L540 487L540 486L540 458L540 456L540 418L540 395L540 392L540 390L539.972 388.028L539.944 387.111L539.75 386.306L539.722 385.778L539 385z"/>
<path style="fill:#232323; stroke:none;" d="M634 385L634 386.5L634 387.056L634 396L634 397L634 410L634 411L634 417L634 421L634 426L634 436L634.722 435.222L634.75 434.694L634.944 433.889L634.972 432.972L635 431L635 429L635 424L635 421L635 417L635 398L635 397L635 392L635 390L634.972 388.028L634.944 387.111L634.75 386.306L634.722 385.778L634 385z"/>
<path style="fill:#b8b8b8; stroke:none;" d="M635 385L635 386.5L635 391L635 398L635 403L635 410L635 411L635 417L635 421L635 426L635 436L635.722 435.222L635.75 434.694L635.944 433.889L635.972 432.972L636 431L636 429L636 424L636 422L636 397L636 392L636 390L635.972 388.028L635.944 387.111L635.75 386.306L635.722 385.778L635 385z"/>
<path style="fill:#c0c0c0; stroke:none;" d="M734 385L735 386L734 385z"/>
<path style="fill:#606060; stroke:none;" d="M759 385L760 386L759 385z"/>
<path style="fill:#bdbdbd; stroke:none;" d="M811 385L812 386L811 385z"/>
<path style="fill:#bfbfbf; stroke:none;" d="M835 385L836 386L835 385z"/>
<path style="fill:#1a1a1a; stroke:none;" d="M904 385L904 394L904 399L904 401L904 406L904 416L904 423L904 428L904 436L904 476L904 479L904 483L904 528L904.722 527.222L904.75 526.694L904.944 525.889L904.972 524.972L905 523L905 521L905 518L905 497L905 495L905 488L905 468L905 466L905 462L905 461L905 457L905 447L905 444L905 440L905 420L905 418L905 416L905 406L905 405L905 395L905 392L905 390L904.972 388.028L904.944 387.111L904.75 386.306L904.722 385.778L904 385z"/>
<path style="fill:#585858; stroke:none;" d="M925 385L925 393L925 401L925 410L925 414L925 415L925 418L925 426L925 437L925 438L925 439L925 464L925 528L925.722 527.222L925.75 526.694L925.944 525.889L925.972 524.972L926 523L926 521L926 518L926 497L926 496L926 487L926 458L926 454L926 447L926 446L926 435L926 427L926 423L926 418L926 395L926 392L926 390L925.972 388.028L925.944 387.111L925.75 386.306L925.722 385.778L925 385z"/>
<path style="fill:#cfcfcf; stroke:none;" d="M760 386L761 387L760 386z"/>
<path style="fill:#9a9a9a; stroke:none;" d="M810 387L811 388L810 387z"/>
<path style="fill:#808080; stroke:none;" d="M736 388L737 389L736 388z"/>
<path style="fill:#a5a5a5; stroke:none;" d="M761 388L762 389L761 388z"/>
<path style="fill:#808080; stroke:none;" d="M833 388L834 389L833 388z"/>
<path style="fill:#767676; stroke:none;" d="M809 389L810 390L809 389z"/>
<path style="fill:#acacac; stroke:none;" d="M737 390L738 391L737 390z"/>
<path style="fill:#818181; stroke:none;" d="M762 390L763 391L762 390z"/>
<path style="fill:#acacac; stroke:none;" d="M832 390L833 391L832 390z"/>
<path style="fill:#545454; stroke:none;" d="M808 391L809 392L808 391z"/>
<path style="fill:#5d5d5d; stroke:none;" d="M763 392L764 393L763 392z"/>
<path style="fill:#c1c1c1; stroke:none;" d="M807 392L808 393L807 392z"/>
<path style="fill:#6c6c6c; stroke:none;" d="M739 393L740 394L739 393z"/>
<path style="fill:#c7c7c7; stroke:none;" d="M764 393L765 394L764 393z"/>
<path style="fill:#737373; stroke:none;" d="M830 393L831 394L830 393z"/>
<path style="fill:#9d9d9d; stroke:none;" d="M806 394L807 395L806 394z"/>
<path style="fill:#969696; stroke:none;" d="M740 395L741 396L740 395z"/>
<path style="fill:#a4a4a4; stroke:none;" d="M765 395L766 396L765 395z"/>
<path style="fill:#9e9e9e; stroke:none;" d="M829 395L830 396L829 395z"/>
<path style="fill:#7a7a7a; stroke:none;" d="M805 396L806 397L805 396z"/>
<path style="fill:#c2c2c2; stroke:none;" d="M741 397L742 398L741 397z"/>
<path style="fill:#808080; stroke:none;" d="M766 397L767 398L766 397z"/>
<path style="fill:#c9c9c9; stroke:none;" d="M828 397L829 398L828 397z"/>
<path style="fill:#585858; stroke:none;" d="M742 398L743 399L742 398M804 398L805 399L804 398z"/>
<path style="fill:#5e5e5e; stroke:none;" d="M827 398L828 399L827 398z"/>
<path style="fill:#595959; stroke:none;" d="M767 399L768 400L767 399z"/>
<path style="fill:#c7c7c7; stroke:none;" d="M803 399L804 400L803 399z"/>
<path style="fill:#848484; stroke:none;" d="M743 400L744 401L743 400z"/>
<path style="fill:#c6c6c6; stroke:none;" d="M768 400L769 401L768 400z"/>
<path style="fill:#8b8b8b; stroke:none;" d="M826 400L827 401L826 400z"/>
<path style="fill:#a3a3a3; stroke:none;" d="M802 401L803 402L802 401z"/>
<path style="fill:#aeaeae; stroke:none;" d="M744 402L745 403L744 402z"/>
<path style="fill:#a0a0a0; stroke:none;" d="M769 402L770 403L769 402z"/>
<path style="fill:#b6b6b6; stroke:none;" d="M825 402L826 403L825 402z"/>
<path style="fill:#808080; stroke:none;" d="M801 403L802 404L801 403z"/>
<path style="fill:#7c7c7c; stroke:none;" d="M770 404L771 405L770 404z"/>
<path style="fill:#717171; stroke:none;" d="M746 405L747 406L746 405z"/>
<path style="fill:#5d5d5d; stroke:none;" d="M800 405L801 406L800 405z"/>
<path style="fill:#7b7b7b; stroke:none;" d="M823 405L824 406L823 405z"/>
<path style="fill:#575757; stroke:none;" d="M771 406L772 407L771 406z"/>
<path style="fill:#cacaca; stroke:none;" d="M799 406L800 407L799 406z"/>
<path style="fill:#9a9a9a; stroke:none;" d="M747 407L748 408L747 407z"/>
<path style="fill:#c2c2c2; stroke:none;" d="M772 407L773 408L772 407z"/>
<path style="fill:#a8a8a8; stroke:none;" d="M822 407L823 408L822 407z"/>
<path style="fill:#a9a9a9; stroke:none;" d="M798 408L799 409L798 408z"/>
<path style="fill:#c7c7c7; stroke:none;" d="M748 409L749 410L748 409z"/>
<path style="fill:#9f9f9f; stroke:none;" d="M773 409L774 410L773 409z"/>
<path style="fill:#d3d3d3; stroke:none;" d="M821 409L822 410L821 409z"/>
<path style="fill:#5d5d5d; stroke:none;" d="M749 410L750 411L749 410z"/>
<path style="fill:#848484; stroke:none;" d="M797 410L798 411L797 410z"/>
<path style="fill:#6a6a6a; stroke:none;" d="M820 410L821 411L820 410z"/>
<path style="fill:#7a7a7a; stroke:none;" d="M774 411L775 412L774 411z"/>
<path style="fill:#868686; stroke:none;" d="M750 412L751 413L750 412z"/>
<path style="fill:#636363; stroke:none;" d="M796 412L797 413L796 412z"/>
<path style="fill:#959595; stroke:none;" d="M819 412L820 413L819 412z"/>
<path style="fill:#545454; stroke:none;" d="M775 413L776 414L775 413z"/>
<path style="fill:#d0d0d0; stroke:none;" d="M795 413L796 414L795 413z"/>
<path style="fill:#b3b3b3; stroke:none;" d="M751 414L752 415L751 414z"/>
<path style="fill:#c1c1c1; stroke:none;" d="M776 414L777 415L776 414z"/>
<path style="fill:#c0c0c0; stroke:none;" d="M818 414L819 415L818 414z"/>
<path style="fill:#adadad; stroke:none;" d="M794 415L795 416L794 415z"/>
<path style="fill:#9d9d9d; stroke:none;" d="M777 416L778 417L777 416z"/>
<path style="fill:#747474; stroke:none;" d="M753 417L754 418L753 417z"/>
<path style="fill:#8b8b8b; stroke:none;" d="M793 417L794 418L793 417z"/>
<path style="fill:#858585; stroke:none;" d="M816 417L817 418L816 417z"/>
<path style="fill:#767676; stroke:none;" d="M778 418L779 419L778 418z"/>
<path style="fill:#a0a0a0; stroke:none;" d="M754 419L755 420L754 419z"/>
<path style="fill:#676767; stroke:none;" d="M792 419L793 420L792 419z"/>
<path style="fill:#b1b1b1; stroke:none;" d="M815 419L816 420L815 419z"/>
<path style="fill:#cacaca; stroke:none;" d="M755 421L756 422L755 421z"/>
<path style="fill:#c1c1c1; stroke:none;" d="M780 421L781 422L780 421z"/>
<path style="fill:#5e5e5e; stroke:none;" d="M756 422L757 423L756 422z"/>
<path style="fill:#b3b3b3; stroke:none;" d="M790 422L791 423L790 422z"/>
<path style="fill:#727272; stroke:none;" d="M813 422L814 423L813 422z"/>
<path style="fill:#9a9a9a; stroke:none;" d="M781 423L782 424L781 423z"/>
<path style="fill:#898989; stroke:none;" d="M757 424L758 425L757 424z"/>
<path style="fill:#8f8f8f; stroke:none;" d="M789 424L790 425L789 424z"/>
<path style="fill:#9f9f9f; stroke:none;" d="M812 424L813 425L812 424z"/>
<path style="fill:#737373; stroke:none;" d="M782 425L783 426L782 425z"/>
<path style="fill:#b4b4b4; stroke:none;" d="M758 426L759 427L758 426z"/>
<path style="fill:#6d6d6d; stroke:none;" d="M788 426L789 427L788 426z"/>
<path style="fill:#cccccc; stroke:none;" d="M811 426L812 427L811 426z"/>
<path style="fill:#626262; stroke:none;" d="M810 427L811 428L810 427z"/>
<path style="fill:#bcbcbc; stroke:none;" d="M784 428L785 429L784 428z"/>
<path style="fill:#777777; stroke:none;" d="M760 429L761 430L760 429z"/>
<path style="fill:#bcbcbc; stroke:none;" d="M786 429L787 430L786 429z"/>
<path style="fill:#8f8f8f; stroke:none;" d="M809 429L810 430L809 429z"/>
<path style="fill:#9d9d9d; stroke:none;" d="M785 430L786 431L785 430z"/>
<path style="fill:#a3a3a3; stroke:none;" d="M761 431L762 432L761 431z"/>
<path style="fill:#bcbcbc; stroke:none;" d="M808 431L809 432L808 431z"/>
<path style="fill:#cccccc; stroke:none;" d="M762 433L763 434L762 433z"/>
<path style="fill:#636363; stroke:none;" d="M763 434L764 435L763 434z"/>
<path style="fill:#7f7f7f; stroke:none;" d="M806 434L807 435L806 434z"/>
<path style="fill:#1a1a1a; stroke:none;" d="M635 436L635.778 436.722L636.306 436.75L637.111 436.944L638.028 436.972L639 437L640 437L642 437L646 437L652 437L671 437L679 437L680 437L691 437L690.222 436.278L689.694 436.25L688.889 436.056L687.972 436.028L687 436L686 436L684 436L674 436L669 436L667 436L659 436L655 436L647 436L642 436L635 436z"/>
<path style="fill:#737373; stroke:none;" d="M691 436L692 437L691 436z"/>
<path style="fill:#8f8f8f; stroke:none;" d="M764 436L765 437L764 436z"/>
<path style="fill:#ababab; stroke:none;" d="M805 436L806 437L805 436z"/>
<path style="fill:#b5b5b5; stroke:none;" d="M693 438L694 439L693 438z"/>
<path style="fill:#b7b7b7; stroke:none;" d="M765 438L766 439L765 438z"/>
<path style="fill:#6d6d6d; stroke:none;" d="M803 439L804 440L803 439z"/>
<path style="fill:#202020; stroke:none;" d="M693 440L693 450L693.722 449.222L693.75 448.694L693.944 447.889L693.972 446.972L694 445L693.972 443.028L693.944 442.111L693.75 441.306L693.722 440.778L693 440z"/>
<path style="fill:#7b7b7b; stroke:none;" d="M767 441L768 442L767 441z"/>
<path style="fill:#999999; stroke:none;" d="M802 441L803 442L802 441z"/>
<path style="fill:#c7c7c7; stroke:none;" d="M694 442L694 448L694.722 447.222L694.75 446.694L694.944 445.889L694.944 444.111L694.75 443.306L694.722 442.778L694 442z"/>
<path style="fill:#a4a4a4; stroke:none;" d="M768 443L769 444L768 443z"/>
<path style="fill:#c5c5c5; stroke:none;" d="M801 443L802 444L801 443z"/>
<path style="fill:#d0d0d0; stroke:none;" d="M769 445L770 446L769 445z"/>
<path style="fill:#696969; stroke:none;" d="M770 446L771 447L770 446z"/>
<path style="fill:#868686; stroke:none;" d="M799 446L800 447L799 446z"/>
<path style="fill:#a9a9a9; stroke:none;" d="M770 447L771 448L770 447z"/>
<path style="fill:#a4a4a4; stroke:none;" d="M800 448L801 449L800 448z"/>
<path style="fill:#7e7e7e; stroke:none;" d="M769 449L770 450L769 449z"/>
<path style="fill:#7a7a7a; stroke:none;" d="M801 450L802 451L801 450z"/>
<path style="fill:#979797; stroke:none;" d="M693 451L694 452L693 451z"/>
<path style="fill:#b7b7b7; stroke:none;" d="M767 452L768 453L767 452z"/>
<path style="fill:#1b1b1b; stroke:none;" d="M635 453L635.778 453.722L636.306 453.75L637.111 453.944L638.028 453.972L639 454L640 454L642 454L646 454L652 454L671 454L679 454L680 454L691 454L690.222 453.278L689.694 453.25L688.889 453.056L687.972 453.028L687 453L686 453L684 453L674 453L669 453L667 453L659 453L655 453L647 453L642 453L635 453z"/>
<path style="fill:#5c5c5c; stroke:none;" d="M691 453L692 454L691 453z"/>
<path style="fill:#bbbbbb; stroke:none;" d="M803 453L804 454L803 453z"/>
<path style="fill:#232323; stroke:none;" d="M634 454L634 478L634 479L634 512L634.722 511.222L634.75 510.694L634.944 509.889L634.972 508.972L635 508L635 506L635 505L635 503L635 498L635 497L635 496L635 483L635 467L635 462L635 460L635 458L634.972 457.028L634.944 456.111L634.75 455.306L634.722 454.778L634 454z"/>
<path style="fill:#b8b8b8; stroke:none;" d="M635 454L635 457.056L635 477L635 512L635.722 511.222L635.75 510.694L635.944 509.889L635.972 508.972L636 508L636 506L636 504L636 499L636 468L636 463L636 461L636 460L636 458L635.972 457.028L635.944 456.111L635.75 455.306L635.722 454.778L635 454z"/>
<path style="fill:#868686; stroke:none;" d="M766 454L767 455L766 454z"/>
<path style="fill:#8f8f8f; stroke:none;" d="M804 455L805 456L804 455z"/>
<path style="fill:#585858; stroke:none;" d="M765 456L766 457L765 456z"/>
<path style="fill:#c1c1c1; stroke:none;" d="M764 457L765 458L764 457z"/>
<path style="fill:#666666; stroke:none;" d="M805 457L806 458L805 457z"/>
<path style="fill:#d0d0d0; stroke:none;" d="M806 458L807 459L806 458z"/>
<path style="fill:#939393; stroke:none;" d="M763 459L764 460L763 459z"/>
<path style="fill:#a6a6a6; stroke:none;" d="M807 460L808 461L807 460z"/>
<path style="fill:#656565; stroke:none;" d="M762 461L763 462L762 461z"/>
<path style="fill:#cbcbcb; stroke:none;" d="M761 462L762 463L761 462z"/>
<path style="fill:#9b9b9b; stroke:none;" d="M784 462L785 463L784 462z"/>
<path style="fill:#7c7c7c; stroke:none;" d="M808 462L809 463L808 462z"/>
<path style="fill:#898989; stroke:none;" d="M785 463L786 464L785 463z"/>
<path style="fill:#9e9e9e; stroke:none;" d="M760 464L761 465L760 464z"/>
<path style="fill:#cfcfcf; stroke:none;" d="M783 464L784 465L783 464z"/>
<path style="fill:#555555; stroke:none;" d="M809 464L810 465L809 464z"/>
<path style="fill:#5e5e5e; stroke:none;" d="M782 465L783 466L782 465z"/>
<path style="fill:#a2a2a2; stroke:none;" d="M786 465L787 466L786 465z"/>
<path style="fill:#bcbcbc; stroke:none;" d="M810 465L811 466L810 465z"/>
<path style="fill:#6d6d6d; stroke:none;" d="M759 466L760 467L759 466z"/>
<path style="fill:#7f7f7f; stroke:none;" d="M781 467L782 468L781 467z"/>
<path style="fill:#c0c0c0; stroke:none;" d="M787 467L788 468L787 467z"/>
<path style="fill:#929292; stroke:none;" d="M811 467L812 468L811 467z"/>
<path style="fill:#a8a8a8; stroke:none;" d="M757 469L758 470L757 469z"/>
<path style="fill:#9f9f9f; stroke:none;" d="M780 469L781 470L780 469z"/>
<path style="fill:#686868; stroke:none;" d="M812 469L813 470L812 469z"/>
<path style="fill:#6c6c6c; stroke:none;" d="M789 470L790 471L789 470z"/>
<path style="fill:#d1d1d1; stroke:none;" d="M813 470L814 471L813 470z"/>
<path style="fill:#7b7b7b; stroke:none;" d="M756 471L757 472L756 471z"/>
<path style="fill:#c0c0c0; stroke:none;" d="M779 471L780 472L779 471z"/>
<path style="fill:#8a8a8a; stroke:none;" d="M790 472L791 473L790 472z"/>
<path style="fill:#a8a8a8; stroke:none;" d="M814 472L815 473L814 472z"/>
<path style="fill:#b2b2b2; stroke:none;" d="M754 474L755 475L754 474z"/>
<path style="fill:#737373; stroke:none;" d="M777 474L778 475L777 474z"/>
<path style="fill:#a6a6a6; stroke:none;" d="M791 474L792 475L791 474z"/>
<path style="fill:#7e7e7e; stroke:none;" d="M815 474L816 475L815 474z"/>
<path style="fill:#848484; stroke:none;" d="M753 476L754 477L753 476z"/>
<path style="fill:#939393; stroke:none;" d="M776 476L777 477L776 476z"/>
<path style="fill:#c5c5c5; stroke:none;" d="M792 476L793 477L792 476z"/>
<path style="fill:#c0c0c0; stroke:none;" d="M817 477L818 478L817 477z"/>
<path style="fill:#565656; stroke:none;" d="M752 478L753 479L752 478z"/>
<path style="fill:#b2b2b2; stroke:none;" d="M775 478L776 479L775 478z"/>
<path style="fill:#bcbcbc; stroke:none;" d="M751 479L752 480L751 479z"/>
<path style="fill:#717171; stroke:none;" d="M794 479L795 480L794 479z"/>
<path style="fill:#949494; stroke:none;" d="M818 479L819 480L818 479z"/>
<path style="fill:#d1d1d1; stroke:none;" d="M774 480L775 481L774 480z"/>
<path style="fill:#8e8e8e; stroke:none;" d="M750 481L751 482L750 481z"/>
<path style="fill:#626262; stroke:none;" d="M773 481L774 482L773 481z"/>
<path style="fill:#8c8c8c; stroke:none;" d="M795 481L796 482L795 481z"/>
<path style="fill:#696969; stroke:none;" d="M819 481L820 482L819 481z"/>
<path style="fill:#616161; stroke:none;" d="M749 483L750 484L749 483z"/>
<path style="fill:#838383; stroke:none;" d="M772 483L773 484L772 483z"/>
<path style="fill:#acacac; stroke:none;" d="M796 483L797 484L796 483z"/>
<path style="fill:#c9c9c9; stroke:none;" d="M748 484L749 485L748 484z"/>
<path style="fill:#a9a9a9; stroke:none;" d="M821 484L822 485L821 484z"/>
<path style="fill:#a3a3a3; stroke:none;" d="M771 485L772 486L771 485z"/>
<path style="fill:#c9c9c9; stroke:none;" d="M797 485L798 486L797 485z"/>
<path style="fill:#9b9b9b; stroke:none;" d="M747 486L748 487L747 486z"/>
<path style="fill:#808080; stroke:none;" d="M822 486L823 487L822 486z"/>
<path style="fill:#c5c5c5; stroke:none;" d="M770 487L771 488L770 487z"/>
<path style="fill:#6b6b6b; stroke:none;" d="M746 488L747 489L746 488z"/>
<path style="fill:#757575; stroke:none;" d="M799 488L800 489L799 488z"/>
<path style="fill:#565656; stroke:none;" d="M823 488L824 489L823 488z"/>
<path style="fill:#d3d3d3; stroke:none;" d="M745 489L746 490L745 489z"/>
<path style="fill:#c1c1c1; stroke:none;" d="M824 489L825 490L824 489z"/>
<path style="fill:#757575; stroke:none;" d="M768 490L769 491L768 490z"/>
<path style="fill:#949494; stroke:none;" d="M800 490L801 491L800 490z"/>
<path style="fill:#a2a2a2; stroke:none;" d="M744 491L745 492L744 491z"/>
<path style="fill:#979797; stroke:none;" d="M825 491L826 492L825 491z"/>
<path style="fill:#949494; stroke:none;" d="M767 492L768 493L767 492z"/>
<path style="fill:#b2b2b2; stroke:none;" d="M801 492L802 493L801 492z"/>
<path style="fill:#757575; stroke:none;" d="M743 493L744 494L743 493z"/>
<path style="fill:#696969; stroke:none;" d="M826 493L827 494L826 493z"/>
<path style="fill:#b5b5b5; stroke:none;" d="M766 494L767 495L766 494z"/>
<path style="fill:#cccccc; stroke:none;" d="M802 494L803 495L802 494z"/>
<path style="fill:#5d5d5d; stroke:none;" d="M803 495L804 496L803 495z"/>
<path style="fill:#b0b0b0; stroke:none;" d="M741 496L742 497L741 496z"/>
<path style="fill:#acacac; stroke:none;" d="M828 496L829 497L828 496z"/>
<path style="fill:#676767; stroke:none;" d="M764 497L765 498L764 497z"/>
<path style="fill:#7a7a7a; stroke:none;" d="M804 497L805 498L804 497z"/>
<path style="fill:#7f7f7f; stroke:none;" d="M740 498L741 499L740 498z"/>
<path style="fill:#818181; stroke:none;" d="M829 498L830 499L829 498z"/>
<path style="fill:#868686; stroke:none;" d="M763 499L764 500L763 499z"/>
<path style="fill:#979797; stroke:none;" d="M805 499L806 500L805 499z"/>
<path style="fill:#585858; stroke:none;" d="M830 500L831 501L830 500z"/>
<path style="fill:#bababa; stroke:none;" d="M738 501L739 502L738 501z"/>
<path style="fill:#a5a5a5; stroke:none;" d="M762 501L763 502L762 501z"/>
<path style="fill:#b5b5b5; stroke:none;" d="M806 501L807 502L806 501z"/>
<path style="fill:#c1c1c1; stroke:none;" d="M831 501L832 502L831 501z"/>
<path style="fill:#898989; stroke:none;" d="M737 503L738 504L737 503z"/>
<path style="fill:#c6c6c6; stroke:none;" d="M761 503L762 504L761 503z"/>
<path style="fill:#d3d3d3; stroke:none;" d="M807 503L808 504L807 503z"/>
<path style="fill:#999999; stroke:none;" d="M832 503L833 504L832 503z"/>
<path style="fill:#616161; stroke:none;" d="M808 504L809 505L808 504z"/>
<path style="fill:#5d5d5d; stroke:none;" d="M736 505L737 506L736 505z"/>
<path style="fill:#6f6f6f; stroke:none;" d="M833 505L834 506L833 505z"/>
<path style="fill:#c5c5c5; stroke:none;" d="M735 506L736 507L735 506z"/>
<path style="fill:#797979; stroke:none;" d="M759 506L760 507L759 506z"/>
<path style="fill:#7f7f7f; stroke:none;" d="M809 506L810 507L809 506z"/>
<path style="fill:#959595; stroke:none;" d="M734 508L735 509L734 508z"/>
<path style="fill:#999999; stroke:none;" d="M758 508L759 509L758 508z"/>
<path style="fill:#9c9c9c; stroke:none;" d="M810 508L811 509L810 508z"/>
<path style="fill:#adadad; stroke:none;" d="M835 508L836 509L835 508z"/>
<path style="fill:#686868; stroke:none;" d="M733 510L734 511L733 510z"/>
<path style="fill:#b8b8b8; stroke:none;" d="M757 510L758 511L757 510z"/>
<path style="fill:#bababa; stroke:none;" d="M811 510L812 511L811 510z"/>
<path style="fill:#858585; stroke:none;" d="M836 510L837 511L836 510z"/>
<path style="fill:#cfcfcf; stroke:none;" d="M732 511L733 512L732 511z"/>
<path style="fill:#1a1a1a; stroke:none;" d="M635 512L635.778 512.722L636.306 512.75L637.111 512.944L638.028 512.972L639 513L640 513L642 513L654 513L655 513L661 513L662 513L666 513L671 513L672 513L684 513L692 513L697.944 513L701 513L700.222 512.278L699.694 512.25L698.889 512.056L697.972 512.028L697 512L696 512L694 512L689 512L686 512L682 512L650 512L648 512L647 512L645 512L644 512L635 512z"/>
<path style="fill:#6d6d6d; stroke:none;" d="M701 512L702 513L701 512z"/>
<path style="fill:#595959; stroke:none;" d="M837 512L838 513L837 512z"/>
<path style="fill:#a1a1a1; stroke:none;" d="M731 513L732 514L731 513z"/>
<path style="fill:#6a6a6a; stroke:none;" d="M755 513L756 514L755 513z"/>
<path style="fill:#666666; stroke:none;" d="M813 513L814 514L813 513z"/>
<path style="fill:#c5c5c5; stroke:none;" d="M838 513L839 514L838 513z"/>
<path style="fill:#a1a1a1; stroke:none;" d="M703 514L704 515L703 514z"/>
<path style="fill:#717171; stroke:none;" d="M730 515L731 516L730 515z"/>
<path style="fill:#8a8a8a; stroke:none;" d="M754 515L755 516L754 515z"/>
<path style="fill:#858585; stroke:none;" d="M814 515L815 516L814 515z"/>
<path style="fill:#9a9a9a; stroke:none;" d="M839 515L840 516L839 515z"/>
<path style="fill:#222222; stroke:none;" d="M703 516L703 526L703.722 525.222L703.75 524.694L703.944 523.889L703.972 522.972L704 521L703.972 519.028L703.944 518.111L703.75 517.306L703.722 516.778L703 516z"/>
<path style="fill:#b8b8b8; stroke:none;" d="M704 517L704 524L704.722 523.222L704.75 522.694L704.944 521.889L704.972 520.972L704.944 519.111L704.75 518.306L704.722 517.778L704 517z"/>
<path style="fill:#ababab; stroke:none;" d="M753 517L754 518L753 517z"/>
<path style="fill:#9f9f9f; stroke:none;" d="M815 517L816 518L815 517z"/>
<path style="fill:#707070; stroke:none;" d="M840 517L841 518L840 517z"/>
<path style="fill:#aaaaaa; stroke:none;" d="M728 518L729 519L728 518z"/>
<path style="fill:#cbcbcb; stroke:none;" d="M752 519L753 520L752 519z"/>
<path style="fill:#bfbfbf; stroke:none;" d="M816 519L817 520L816 519z"/>
<path style="fill:#7e7e7e; stroke:none;" d="M727 520L728 521L727 520z"/>
<path style="fill:#b2b2b2; stroke:none;" d="M842 520L843 521L842 520z"/>
<path style="fill:#e4e4e4; stroke:none;" d="M613.333 522.667L613.333 523.333L613.667 523.333L613.667 523L613.333 522.667z"/>
<path style="fill:#7a7a7a; stroke:none;" d="M750 522L751 523L750 522z"/>
<path style="fill:#6b6b6b; stroke:none;" d="M818 522L819 523L818 522z"/>
<path style="fill:#888888; stroke:none;" d="M843 522L844 523L843 522z"/>
<path style="fill:#cacaca; stroke:none;" d="M725 523L726 524L725 523z"/>
<path style="fill:#9d9d9d; stroke:none;" d="M749 524L750 525L749 524z"/>
<path style="fill:#888888; stroke:none;" d="M819 524L820 525L819 524z"/>
<path style="fill:#7c7c7c; stroke:none;" d="M844 524L845 525L844 524z"/>
<path style="fill:#6c6c6c; stroke:none;" d="M614 525L615 526L614 525z"/>
<path style="fill:#d3d3d3; stroke:none;" d="M724 525L725 526L724 525z"/>
<path style="fill:#212121; stroke:none;" d="M844 525L844 529L844.722 528.222L844.722 527.722L844.889 527L844.722 525.778L844 525z"/>
<path style="fill:#5b5b5b; stroke:none;" d="M724 526L724 529L724.694 528.25L724.694 527.194L724.694 526.75L724 526z"/>
<path style="fill:#bcbcbc; stroke:none;" d="M748 526L749 527L748 526z"/>
<path style="fill:#a6a6a6; stroke:none;" d="M820 526L821 527L820 526z"/>
<path style="fill:#969696; stroke:none;" d="M845.333 526.667L845.333 527L845.667 527.333L845.667 527L845.333 526.667z"/>
<path style="fill:#aeaeae; stroke:none;" d="M615 527L616 528L615 527z"/>
<path style="fill:#ababab; stroke:none;" d="M703 527L704 528L703 527z"/>
<path style="fill:#767676; stroke:none;" d="M518 528L519 529L518 528z"/>
<path style="fill:#c1c1c1; stroke:none;" d="M539 528L540 529L539 528z"/>
<path style="fill:#d2d2d2; stroke:none;" d="M616 528L617 529L616 528z"/>
<path style="fill:#cecece; stroke:none;" d="M821 528L822 529L821 528z"/>
<path style="fill:#c7c7c7; stroke:none;" d="M845 528L846 529L845 528z"/>
<path style="fill:#757575; stroke:none;" d="M904 528L905 529L904 528z"/>
<path style="fill:#c0c0c0; stroke:none;" d="M925 528L926 529L925 528z"/>
<path style="fill:#7e7e7e; stroke:none;" d="M519 529L520 530L519 529z"/>
<path style="fill:#acacac; stroke:none;" d="M538 529L539 530L538 529z"/>
<path style="fill:#b7b7b7; stroke:none;" d="M618 529L619 530L618 529z"/>
<path style="fill:#626262; stroke:none;" d="M619 529L620 530L619 529z"/>
<path style="fill:#1b1b1b; stroke:none;" d="M621 529L621.778 529.722L622.306 529.75L623.111 529.944L624.028 529.972L626 530L627 530L629 530L644 530L646 530L654 530L656 530L659 530L661 530L664 530L665 530L666 530L682 530L687 530L691 530L701 530L700.222 529.278L699.694 529.25L698.889 529.056L697.972 529.028L696 529L695 529L693 529L688 529L678 529L676 529L672 529L671 529L663 529L659 529L657 529L654 529L649 529L645 529L639 529L631 529L621 529z"/>
<path style="fill:#6c6c6c; stroke:none;" d="M701 529L702 530L701 529z"/>
<path style="fill:#d0d0d0; stroke:none;" d="M822 529L823 530L822 529z"/>
<path style="fill:#8f8f8f; stroke:none;" d="M844 529L845 530L844 529z"/>
<path style="fill:#7e7e7e; stroke:none;" d="M905 529L906 530L905 529z"/>
<path style="fill:#ababab; stroke:none;" d="M924 529L925 530L924 529z"/>
<path style="fill:#cccccc; stroke:none;" d="M521 530L522 531L521 530z"/>
<path style="fill:#959595; stroke:none;" d="M522 530L523 531L522 530z"/>
<path style="fill:#4e4e4e; stroke:none;" d="M523.667 530.333L524 530.667L524.333 530.667L524 530.333L523.667 530.333z"/>
<path style="fill:#181818; stroke:none;" d="M526 530L526.778 530.722L527.306 530.75L528.056 530.944L528.972 530.972L531 531L530.222 530.278L529.694 530.25L528.944 530.056L528.028 530.028L526 530z"/>
<path style="fill:#737373; stroke:none;" d="M534 530L535 531L534 530z"/>
<path style="fill:#a1a1a1; stroke:none;" d="M535 530L536 531L535 530z"/>
<path style="fill:#c8c8c8; stroke:none;" d="M726 530L727 531L726 530z"/>
<path style="fill:#5c5c5c; stroke:none;" d="M727.667 530.333L727.667 530.667L728.333 530.667L728 530.333L727.667 530.333z"/>
<path style="fill:#181818; stroke:none;" d="M732 530L732.778 530.722L733.306 530.75L734.111 530.944L735.028 530.972L735.944 531L736.944 531L739 531L738.222 530.278L737.694 530.25L736.889 530.056L735.972 530.028L735.056 530L734.056 530L732 530z"/>
<path style="fill:#717171; stroke:none;" d="M741.667 530.333L742 530.667L742.333 530.667L742 530.333L741.667 530.333z"/>
<path style="fill:#a0a0a0; stroke:none;" d="M743 530L744 531L743 530z"/>
<path style="fill:#929292; stroke:none;" d="M825 530L826 531L825 530z"/>
<path style="fill:#494949; stroke:none;" d="M826.667 530.333L826.667 530.667L827.333 530.667L827 530.333L826.667 530.333z"/>
<path style="fill:#1a1a1a; stroke:none;" d="M830 530L830.778 530.722L831.306 530.75L832.111 530.944L833.028 530.972L833.944 531L834.944 531L837 531L836.222 530.278L835.694 530.25L834.889 530.056L833.972 530.028L833.056 530L832.056 530L830 530z"/>
<path style="fill:#777777; stroke:none;" d="M840.667 530.333L840.667 530.667L841.333 530.667L841 530.333L840.667 530.333z"/>
<path style="fill:#acacac; stroke:none;" d="M842 530L843 531L842 530z"/>
<path style="fill:#cccccc; stroke:none;" d="M907 530L908 531L907 530z"/>
<path style="fill:#949494; stroke:none;" d="M908 530L909 531L908 530z"/>
<path style="fill:#4d4d4d; stroke:none;" d="M909.667 530.333L910 530.667L910.333 530.667L910 530.333L909.667 530.333z"/>
<path style="fill:#1a1a1a; stroke:none;" d="M912 530L912.778 530.722L913.306 530.75L914.056 530.944L914.972 530.972L917 531L916.222 530.278L915.694 530.25L914.944 530.056L914.028 530.028L912 530z"/>
<path style="fill:#727272; stroke:none;" d="M920 530L921 531L920 530z"/>
<path style="fill:#a3a3a3; stroke:none;" d="M921 530L922 531L921 530z"/>
<path style="fill:#1a1a1a; stroke:none;" d="M430 555L430.778 555.722L431.306 555.75L432.111 555.944L433.028 555.972L435 556L436 556L438 556L452 556L451.222 555.278L450.694 555.25L449.889 555.056L448.972 555.028L447 555L446 555L444 555L430 555z"/>
<path style="fill:#585858; stroke:none;" d="M452 555L453 556L452 555z"/>
<path style="fill:#676767; stroke:none;" d="M990 555L991 556L990 555z"/>
<path style="fill:#1a1a1a; stroke:none;" d="M991 555L991.778 555.722L992.306 555.75L993.111 555.944L994.028 555.972L996 556L997 556L999 556L1003 556L1004 556L1007 556L1008 556L1013 556L1012.22 555.278L1011.69 555.25L1010.89 555.056L1009.97 555.028L1008 555L1007 555L1005 555L1004 555L999 555L991 555z"/>
<path style="fill:#636363; stroke:none;" d="M989 556L990 557L989 556z"/>
<path style="fill:#d2d2d2; stroke:none;" d="M454 557L455 558L454 557z"/>
<path style="fill:#878787; stroke:none;" d="M454 558L455 559L454 558z"/>
<path style="fill:#8e8e8e; stroke:none;" d="M988.333 558.667L988.333 559.333L988.667 559.333L988.667 559L988.333 558.667z"/>
<path style="fill:#6c6c6c; stroke:none;" d="M988 560L988 566L988.722 565.222L988.75 564.694L988.944 563.889L988.944 562.111L988.75 561.306L988.722 560.778L988 560z"/>
<path style="fill:#848484; stroke:none;" d="M411 564L412 565L411 564z"/>
<path style="fill:#9e9e9e; stroke:none;" d="M1031 565L1032 566L1031 565z"/>
<path style="fill:#595959; stroke:none;" d="M412 566L413 567L412 566z"/>
<path style="fill:#7e7e7e; stroke:none;" d="M454 566L455 567L454 566z"/>
<path style="fill:#bcbcbc; stroke:none;" d="M988 566L989 567L988 566z"/>
<path style="fill:#c2c2c2; stroke:none;" d="M454 567L455 568L454 567z"/>
<path style="fill:#c7c7c7; stroke:none;" d="M1030 567L1031 568L1030 567z"/>
<path style="fill:#767676; stroke:none;" d="M989 568L990 569L989 568z"/>
<path style="fill:#c8c8c8; stroke:none;" d="M1029 568L1030 569L1029 568z"/>
<path style="fill:#c0c0c0; stroke:none;" d="M415 569L416 570L415 569z"/>
<path style="fill:#646464; stroke:none;" d="M416 569L417 570L416 569z"/>
<path style="fill:#1a1a1a; stroke:none;" d="M418 569L418.778 569.722L419.306 569.75L420.111 569.944L421.028 569.972L423 570L425 570L429 570L452 570L451.222 569.278L450.694 569.25L449.889 569.056L448.972 569.028L447 569L445 569L441 569L418 569z"/>
<path style="fill:#757575; stroke:none;" d="M990 569L991 570L990 569z"/>
<path style="fill:#1a1a1a; stroke:none;" d="M991 569L991.778 569.722L992.306 569.75L993.111 569.944L994.028 569.972L996 570L998 570L1002 570L1005 570L1013 570L1017 570L1025 570L1024.22 569.278L1023.69 569.25L1022.89 569.056L1021.97 569.028L1020 569L1018 569L1014 569L991 569z"/>
<path style="fill:#a9a9a9; stroke:none;" d="M1027 569L1028 570L1027 569z"/>
<path style="fill:#b9b9b9; stroke:none;" d="M320 599L321 600L320 599z"/>
<path style="fill:#b7b7b7; stroke:none;" d="M1705 599L1706 600L1705 599z"/>
<path style="fill:#555555; stroke:none;" d="M320 600L321 601L320 600z"/>
<path style="fill:#535353; stroke:none;" d="M1705 600L1706 601L1705 600z"/>
<path style="fill:#4d4d4d; stroke:none;" d="M321 602L322 603L321 602M1704 602L1705 603L1704 602z"/>
<path style="fill:#8e8e8e; stroke:none;" d="M322 603L323 604L322 603M1703 603L1704 604L1703 603z"/>
<path style="fill:#9b9b9b; stroke:none;" d="M323 604L324 605L323 604z"/>
<path style="fill:#9d9d9d; stroke:none;" d="M1702 604L1703 605L1702 604z"/>
<path style="fill:#c3c3c3; stroke:none;" d="M311 605L312 606L311 605z"/>
<path style="fill:#4a4a4a; stroke:none;" d="M324 605L325 606L324 605z"/>
<path style="fill:#4b4b4b; stroke:none;" d="M1701 605L1702 606L1701 605z"/>
<path style="fill:#bbbbbb; stroke:none;" d="M1714 605L1715 606L1714 605z"/>
<path style="fill:#555555; stroke:none;" d="M326 606L327 607L326 606z"/>
<path style="fill:#bababa; stroke:none;" d="M327 606L328 607L327 606M1698 606L1699 607L1698 606z"/>
<path style="fill:#535353; stroke:none;" d="M1699 606L1700 607L1699 606z"/>
<path style="fill:#888888; stroke:none;" d="M315 611L316 612L315 611z"/>
<path style="fill:#8a8a8a; stroke:none;" d="M1710 611L1711 612L1710 611z"/>
<path style="fill:#c2c2c2; stroke:none;" d="M321 615L322 616L321 615M1704 615L1705 616L1704 615z"/>
</svg>
